<?xml version="1.0" standalone="no"?>
<!DOCTYPE svg PUBLIC "-//W3C//DTD SVG 1.1//EN" "http://www.w3.org/Graphics/SVG/1.1/DTD/svg11.dtd" >
<!--
2013-9-30: Created.
-->
<svg>
<metadata>
Created by iconfont
</metadata>
<defs>

<font id="iconfont" horiz-adv-x="1024" >
  <font-face
    font-family="iconfont"
    font-weight="500"
    font-stretch="normal"
    units-per-em="1024"
    ascent="896"
    descent="-128"
  />
    <missing-glyph />
    
    <glyph glyph-name="x" unicode="x" horiz-adv-x="1001"
d="M281 543q-27 -1 -53 -1h-83q-18 0 -36.5 -6t-32.5 -18.5t-23 -32t-9 -45.5v-76h912v41q0 16 -0.5 30t-0.5 18q0 13 -5 29t-17 29.5t-31.5 22.5t-49.5 9h-133v-97h-438v97zM955 310v-52q0 -23 0.5 -52t0.5 -58t-10.5 -47.5t-26 -30t-33 -16t-31.5 -4.5q-14 -1 -29.5 -0.5
t-29.5 0.5h-32l-45 128h-439l-44 -128h-29h-34q-20 0 -45 1q-25 0 -41 9.5t-25.5 23t-13.5 29.5t-4 30v167h911zM163 247q-12 0 -21 -8.5t-9 -21.5t9 -21.5t21 -8.5q13 0 22 8.5t9 21.5t-9 21.5t-22 8.5zM316 123q-8 -26 -14 -48q-5 -19 -10.5 -37t-7.5 -25t-3 -15t1 -14.5
t9.5 -10.5t21.5 -4h37h67h81h80h64h36q23 0 34 12t2 38q-5 13 -9.5 30.5t-9.5 34.5q-5 19 -11 39h-368zM336 498v228q0 11 2.5 23t10 21.5t20.5 15.5t34 6h188q31 0 51.5 -14.5t20.5 -52.5v-227h-327z" />
    

    
    <glyph glyph-name="qq" unicode="&#58921;" d="M116.435 356.952c-33.54-78.964-38.985-154.297-12.059-168.37 18.572-9.696 47.686 12.382 74.936 52.909 10.791-44.157 37.493-84.137 75.633-116.21-40.004-14.768-66.135-38.886-66.135-66.232 0-44.954 70.709-81.302 157.978-81.302 78.716 0 143.907 29.538 155.94 68.371 3.232 0.049 15.663 0.049 18.796 0 12.083-38.784 77.324-68.371 155.989-68.371 87.267 0 157.978 36.398 157.978 81.302 0 27.297-26.105 51.464-66.135 66.232 38.089 32.123 64.889 72.053 75.631 116.21 27.251-40.527 56.29-62.605 74.887-52.909 26.95 14.073 21.631 89.456-12.032 168.37-26.355 62.058-62.11 107.754-89.457 117.848 0.398 3.929 0.596 7.958 0.596 11.935 0 23.968-6.661 46.146-18.049 64.196 0.199 1.393 0.199 2.834 0.199 4.227 0 11.038-2.636 21.381-7.114 30.332-6.909 161.309-111.93 289.402-281.866 289.402-170.036 0-275.106-128.093-281.943-289.402-4.525-9.001-7.135-19.343-7.135-30.332 0-1.393 0.099-2.835 0.15-4.227-11.288-18.050-17.951-40.178-17.951-64.196 0-3.978 0.15-7.955 0.498-11.935-27.151-10.094-63.028-55.841-89.333-117.848z"  horiz-adv-x="1024" />

    
    <glyph glyph-name="dingwei" unicode="&#58880;" d="M527.688704-151.07712c0 0-345.432064 400.384-345.432064 593.92s156.672 340.992 345.432064 340.992 345.767936-152.576 345.767936-340.992S527.688704-151.07712 527.688704-151.07712zM528.457728 742.361856c-167.315456-0.529408-305.496064-136.704-304.984064-299.008s304.984064-530.260992 304.984064-530.260992 303.976448 369.219584 303.783936 530.772992C832.049152 605.419264 695.771136 742.891264 528.457728 742.361856zM640.49664 484.075264c0-62.209024-50.430976-112.64-112.64-112.64s-112.64 50.430976-112.64 112.64c0 62.209024 50.430976 112.64 112.64 112.64S640.49664 546.284288 640.49664 484.075264zM527.85664 555.755264c-39.58784 0-71.68-32.09216-71.68-71.68 0-39.58784 32.09216-71.68 71.68-71.68 39.586816 0 71.68 32.09216 71.68 71.68C599.53664 523.663104 567.44448 555.755264 527.85664 555.755264z"  horiz-adv-x="1024" />

    
    <glyph glyph-name="douban" unicode="&#58922;" d="M127.175692 746.486914l769.820538 0 0-86.713944-769.820538 0 0 86.713944ZM830.077383 230.333314 830.077383 569.318842 194.093517 569.318842l0-338.985528L830.077383 230.333314zM286.318765 482.666296l452.4595 0 0-165.727509L286.318765 316.938788 286.318765 482.666296zM692.507533 34.943228c27.674431 42.361807 53.787231 91.488691 77.986369 147.250692l-92.526113 33.719986c-24.064055-66.078974-52.079262-126.495996-83.960681-180.970678L433.005632 34.943228c-26.683829 70.601988-56.795878 130.973984-90.57868 180.970678l-85.097622-33.719986c35.098829-52.647057 63.400573-101.654214 85.097622-147.250692L105.401892 34.943228l0-85.766362L918.796637-50.823134l0 85.766362L692.507533 34.943228z"  horiz-adv-x="1024" />

    
    <glyph glyph-name="xiaolian" unicode="&#58886;" d="M512 812C229.21216 812 0 582.78784 0 300 0 17.21216 229.21216-212 512-212S1024 17.21216 1024 300C1024 582.78784 794.78784 812 512 812zM682.68032 563.9872c35.34848 0 63.97952-38.21568 63.97952-85.31968 0-47.14496-28.672-85.31968-63.97952-85.31968-35.34848 0-64.02048 38.21568-64.02048 85.31968C618.65984 525.81248 647.33184 563.9872 682.68032 563.9872zM338.1248 563.45472c35.34848 0 64.02048-38.21568 64.02048-85.31968 0-47.14496-28.672-85.31968-64.02048-85.31968-35.34848 0-64.02048 38.21568-64.02048 85.31968C274.14528 525.28 302.77632 563.45472 338.1248 563.45472zM506.6752-11.99232c-175.18592 0-292.57728 114.60608-313.63072 305.31584l41.32864 0c33.50528-147.57888 124.14976-221.34784 272.01536-221.34784 147.82464 0 238.46912 73.76896 271.9744 221.34784l42.68032 0C799.90784 102.61376 681.82016-11.99232 506.6752-11.99232z"  horiz-adv-x="1024" />

    
    <glyph glyph-name="qzone" unicode="&#58923;" d="M505.429 856.911c-4.666-1.908-17.811-15.899-17.811-19.081 0-1.058-20.565-44.735-45.793-96.887-25.228-52.156-46.855-97.737-48.125-101.338-1.062-3.393-2.97-7.421-3.816-8.694-1.062-1.273-6.997-12.721-13.356-25.44-6.786-13.995-13.995-25.655-18.022-28.836-9.752-8.267-3.181-7.421-198.441-29.256-88.194-9.964-97.946-11.448-103.247-16.326-3.816-3.389-5.301-15.688-2.543-22.897 0.847-1.908 38.796-37.949 84.378-80.138 144.166-133.137 134.837-123.812 134.837-133.779 0-4.874-2.966-22.47-6.359-39.434-3.604-16.961-11.66-59.365-18.234-94.341-6.571-34.987-14.203-75.052-16.961-89.047-14.626-74.626-14.841-76.745-7.206-84.804 7.206-7.632 15.476-6.782 37.311 4.236 20.354 10.394 22.262 11.448 62.331 34.987 14.63 8.479 33.71 19.504 42.4 24.381 8.694 4.874 24.805 14.415 35.618 20.985s20.142 11.875 20.777 11.875c0.423 0 6.997 3.816 14.418 8.482 7.421 4.663 14.203 8.475 15.053 8.475 0.847 0 8.479 4.239 16.961 9.54 20.139 12.513 37.523 18.869 47.49 16.964 4.236-0.847 14.415-4.878 22.473-9.329 21.2-11.237 154.764-88.194 196.318-112.998 35.407-21.2 45.793-25.231 57.88-22.047 8.055 1.908 10.387 13.568 7.632 36.673-1.273 10.394-3.181 22.054-4.243 26.081-1.696 6.786-8.69 44.305-25.651 138.441-7.847 44.735-7.847 45.582 9.748 52.152 24.385 9.117 35.83 17.172 31.379 21.627-1.485 1.488-15.053-0.212-43.25-5.301-52.367-9.54-63.181-11.025-118.514-16.114-62.966-5.939-121.061-7.206-198.656-4.454-60.634 2.12-132.717 7.421-136.745 9.964-3.178 2.123-1.696 8.697 3.181 12.933 2.543 2.338 34.768 25.443 71.448 51.517 114.906 81.415 189.536 135.264 195.683 140.988 10.598 9.964 9.752 10.387-34.345 16.111-69.751 8.905-87.985 10.39-201.622 15.691-37.949 1.693-72.294 3.816-76.322 4.451-41.554 6.997 170.243 26.078 259.71 23.32 58.726-1.696 127.843-6.571 168.547-11.872 37.949-5.089 40.281-5.513 40.281-9.752 0-3.393-4.028-6.362-93.28-67.843-36.68-25.443-75.687-52.367-86.712-60.003-10.813-7.629-22.047-15.473-24.593-17.169-11.875-8.055-51.729-35.83-62.754-43.882-6.994-5.086-12.506-10.598-12.506-12.298 0-4.031 10.387-6.577 42.4-10.39 85.012-9.964 243.173-15.476 250.17-8.479 1.485 1.488 1.27 6.147-1.065 15.899-1.693 7.421-3.178 14.421-3.178 15.476 0 2.97 36.045 39.011 85.862 85.651 131.652 123.392 134.625 126.358 134.625 136.11 0 8.482-7.001 16.114-17.388 18.657-5.086 1.273-35.407 4.666-67.42 7.844-32.014 2.97-67.417 6.362-78.438 7.421-11.025 1.273-34.345 3.604-51.944 5.513-67.209 6.786-87.774 9.329-92.648 11.66-9.329 4.239-18.022 21.627-82.265 166.216-45.793 103.458-49.821 111.729-56.18 117.453-5.287 4.878-13.554 6.786-19.279 4.454v0z"  horiz-adv-x="1024" />

    
    <glyph glyph-name="toast-success" unicode="&#58939;" d="M513.417 811.383c-235.639 0-426.667-191.010-426.667-426.667 0-235.657 191.027-426.667 426.667-426.667 235.657 0 426.667 191.010 426.667 426.667 0 235.639-191.010 426.667-426.667 426.667zM513.417-7.834c-216.457 0-392.533 176.094-392.533 392.533 0 216.439 176.077 392.533 392.533 392.533 216.457 0 392.533-176.094 392.533-392.533 0-216.439-176.077-392.533-392.533-392.533zM726.852 537.037l-273.988-265.677-95.983 95.966c-10.001 9.984-26.197 9.984-36.198 0-10.001-10.001-10.001-26.197 0-36.198l113.801-113.801c5.001-5.001 11.554-7.492 18.108-7.492 6.417 0 12.851 2.406 17.818 7.202l292.079 283.238c10.155 9.847 10.394 26.044 0.563 36.198-9.882 10.172-26.044 10.394-36.198 0.563z"  horiz-adv-x="1024" />

    
    <glyph glyph-name="email" unicode="&#58907;" d="M160-0.8M832 556 192 556C160 556 128 524 128 492l0-384c0-32 32-64 64-64l640 0c32 0 64 32 64 64L896 492C896 524 864 556 832 556zM179.2 492C179.2 492 179.2 492 179.2 492L384 344.8l-211.2-179.2L172.8 492zM211.2 504.8l601.6 0L512 287.2 211.2 504.8zM844.8 492C844.8 492 851.2 492 844.8 492l0-326.4L633.6 338.4 844.8 492zM832 95.2 192 95.2c-6.4 0-19.2 6.4-19.2 19.2l0 12.8 236.8 198.4 89.6-64c0 0 6.4 0 6.4 0s6.4 0 6.4 0l83.2 64 243.2-198.4L838.4 108C851.2 101.6 838.4 95.2 832 95.2z"  horiz-adv-x="1024" />

    
    <glyph glyph-name="Set_up" unicode="&#58908;" d="M959.744 292.672l-42.688 187.232-113.184 12.608-28.8 36.16 12.992 113.024-173.056 83.328-80.352-80.608h-46.208l-80.352 80.608-173.056-83.328 12.992-113.088-28.768-36.096-113.184-12.608-42.72-187.232 96.448-60.384 10.304-45.024-60.736-96.256 119.808-150.176 107.36 37.76 41.632-20.032 37.376-107.488h192.064l37.408 107.488 41.6 20.032 107.36-37.76 119.808 150.176-60.736 96.256 10.272 45.024 96.416 60.384zM829.472 95.648l-58.816-73.76-88.192 31.040-93.088-44.864-30.72-88.224h-94.24l-30.72 88.224-93.088 44.864-88.192-31.040-58.816 73.76 49.888 79.040-23.008 100.704-79.2 49.6 20.96 91.936 92.96 10.336 64.384 80.736-10.656 92.832 84.96 40.928 66.016-66.176h103.328l66.016 66.176 84.96-40.928-10.656-92.832 64.416-80.736 92.96-10.336 20.96-91.904-79.232-49.632-22.976-100.704 49.792-79.040zM511.488 459.968c-94.976 0-171.968-76.992-171.968-171.936 0-95.040 76.96-172 171.968-172s171.968 76.96 171.968 172c0 94.944-76.96 171.936-171.968 171.936zM511.488 180.064c-59.392 0-107.712 48.352-107.712 107.776 0 59.36 48.32 107.712 107.712 107.712 59.424 0 107.744-48.352 107.744-107.712 0-59.424-48.32-107.776-107.744-107.776z"  horiz-adv-x="1024" />

    
    <glyph glyph-name="pinglun" unicode="&#58924;" d="M286.3134 435.059022c-31.017434 0-56.165184-26.079982-56.165184-58.262962 0-32.184003 25.14775-58.263985 56.165184-58.263985 31.017434 0 56.165184 26.079982 56.165184 58.263985C342.478584 408.978017 317.330834 435.059022 286.3134 435.059022zM510.976182 435.059022c-31.017434 0-56.165184-26.079982-56.165184-58.262962 0-32.184003 25.148773-58.263985 56.165184-58.263985s56.165184 26.079982 56.165184 58.263985C567.141366 408.978017 541.992593 435.059022 510.976182 435.059022zM735.638965 435.059022c-31.017434 0-56.166207-26.079982-56.166207-58.262962 0-32.184003 25.148773-58.263985 56.166207-58.263985s56.165184 26.079982 56.165184 58.263985C791.804149 408.978017 766.655376 435.059022 735.638965 435.059022zM847.968309 726.362574 173.982008 726.362574c-62.034868 0-112.330368-52.175313-112.330368-116.526947l0-436.95584c0-64.352657 51.421136-123.670647 114.88147-123.670647l171.183777 0c29.837562-31.785937 153.332201-159.63986 153.332201-159.63986 5.483898-5.703909 14.370289-5.703909 19.854187 0 0 0 90.418312 102.513792 149.328004 159.63986L845.41823 49.20914c63.461357 0 114.882494 59.319014 114.882494 123.670647L960.300724 609.835627C960.300724 674.187261 910.004201 726.362574 847.968309 726.362574zM904.13554 172.879788c0-32.1707-26.986631-65.929572-58.71731-65.929572L673.137469 106.950216c-20.869307 0-39.628556-21.459754-39.628556-21.459754L512.538771-39.977112l-120.942513 125.467573c0 0-23.037692 21.459754-42.782386 21.459754L176.533111 106.950216c-31.730679 0-58.716286 33.758871-58.716286 65.929572L117.816824 609.835627c0 32.18298 25.14775 58.265008 56.165184 58.265008l673.986301 0c31.017434 0 56.167231-26.082028 56.167231-58.265008L904.13554 172.879788z"  horiz-adv-x="1024" />

    
    <glyph glyph-name="del" unicode="&#58889;" d="M511.556908-201.266541c-134.303822 0-260.557294 52.052516-355.530342 146.555867C61.019749 39.867378 8.68173 165.583614 8.68173 299.38397c0 133.76761 52.338019 259.521708 147.304927 354.062921C250.960729 747.953312 377.219317 800.000712 511.524163 800.000712s260.563434-52.0474 355.497597-146.553821c95.045703-94.54019 147.343813-220.295312 147.343813-354.025059 0.032746-133.799332-52.29811-259.554454-147.343813-354.094644C772.120342-149.180256 645.861754-201.266541 511.556908-201.266541L511.556908-201.266541zM511.556908 728.194292c-115.191532 0-223.456305-44.608987-304.848033-125.644605C125.348869 521.585701 80.519872 413.896026 80.519872 299.38397c0-114.50694 44.796252-222.196615 126.149095-303.122739 81.397868-81.035618 189.656501-125.650745 304.855196-125.650745 115.15981 0 223.457328 44.615127 304.85008 125.650745 81.357959 80.996732 126.186957 188.647521 126.149095 303.160601 0 114.514103-44.790112 222.163869-126.149095 303.089993C735.014236 683.547443 626.716718 728.194292 511.556908 728.194292L511.556908 728.194292zM547.479049 263.466945l215.521588 0c19.862373 0 35.916001 16.092513 35.916001 35.917024 0 19.830651-16.052604 35.921117-35.916001 35.921117l0 0L547.479049 335.305087M551.365566 335.305087 260.119319 335.305087c-19.824511 0-35.916001-16.090467-35.916001-35.921117 0-19.824511 16.09149-35.917024 35.916001-35.917024l291.246247 0M763.000638 335.305087"  horiz-adv-x="1024" />

    
    <glyph glyph-name="weibo" unicode="&#58925;" d="M667.724691 667.927561c44.154639 0 255.473509 11.467169 216.83756-192.390775-5.399987-22.345937-9.459442-56.574506 17.046235-63.815421 24.14798-6.062066 39.011502 19.130709 45.666062 38.305421 3.188622 22.321378 100.936877 314.472228-276.007171 290.179962-12.046361-2.125407-38.785352-12.417821-38.97364-34.56626C632.104425 683.487955 655.741775 669.065478 667.724691 667.927561zM679.594019 579.472973c7.05058 0.826831 116.910687 20.101827 107.916848-95.749738 1.63422-10.524704-5.819542-28.566616 8.992815-32.268938 14.812357-3.703345 20.630876 8.463766 22.218024 19.572778 1.587148 11.109012 27.215852 161.807223-137.365554 144.41818-12.450567-1.37123-20.807908-8.816806-19.396769-19.74981C663.370523 584.762443 672.54344 578.646142 679.594019 579.472973zM726.18515 399.006785c0 0-44.288692-9.56689-23.384593 23.384593 32.961716 64.451918-20.591991 170.193217-159.439292 99.915617-47.831378-25.51-47.831378-7.440459-46.237067 24.447808 4.300956 174.08485-318.347488 49.957809-409.759431-176.334077-51.543933-137.357368 31.003108-256.060887 158.698418-307.833017 311.643809-111.274316 538.583448 72.812329 577.283866 191.860702C874.931916 433.28959 726.18515 399.006785 726.18515 399.006785zM427.294806 103.804437c-147.530055-20.292162-278.3004 44.50154-292.085358 144.721079s94.637404 197.913559 242.166435 218.205721 278.3004-44.50154 292.085358-144.721079S574.824861 124.096599 427.294806 103.804437zM539.748994 312.676581c-11.707646 61.054541-83.562161 98.591459-160.491251 83.839477S249.455445 320.311469 261.163091 259.256928s83.562161-98.591459 160.491251-83.839477S551.45664 251.62204 539.748994 312.676581zM370.101199 231.732038c-26.561959 0-48.095391 18.326391-48.095391 40.932248 0 22.605857 21.533432 40.932248 48.095391 40.932248 26.561959 0 48.095391-18.326391 48.095391-40.932248C418.196591 250.057405 396.663158 231.732038 370.101199 231.732038zM448.895777 286.990572c-9.912767 0-19.995403 11.912307-19.995403 26.605961 0 14.693654 10.082636 26.605961 19.995403 26.605961 9.912767 0 19.995403-11.912307 19.995403-26.605961C468.89118 298.901857 458.808544 286.990572 448.895777 286.990572z"  horiz-adv-x="1024" />

    
    <glyph glyph-name="wxfriends" unicode="&#58943;" d="M513.666 831.866c-17.104 0-33.904-1.032-50.431-2.977-40.505-4.583-79.33-14.702-115.828-29.397 0 0 300.947-297.82 308.96-308.891v317.595c-8.969 3.053-18.131 5.802-27.369 8.362-36.761 9.889-75.437 15.308-115.332 15.308v0zM828.014 702.484c-12.064 12.064-24.703 23.215-37.756 33.556-31.916 25.352-66.504 45.735-102.66 61.085 0 0 2.215-423.265 0-436.781l224.637 224.593c-4.203 8.478-8.742 16.917-13.518 25.199-19.051 32.985-42.488 64.176-70.703 92.348v0zM926.621 549.699c0 0-297.736-300.91-308.885-308.924h317.631c3.053 8.969 5.805 18.133 8.322 27.371 9.924 36.842 15.35 75.399 15.35 115.332 0 17.067-1.070 33.903-3.021 50.432-4.58 40.506-14.656 79.33-29.397 115.789v0zM484.917 207.332l224.632-224.595c8.553 4.237 16.916 8.704 25.236 13.513 32.986 18.977 64.139 42.452 92.391 70.703 12.021 12.027 23.135 24.703 33.518 37.756 25.309 31.921 45.738 66.468 61.082 102.662 0.002 0-423.302-2.218-436.859-0.039v0zM369.663 277.882v-317.63c9.013-3.054 18.17-5.841 27.372-8.326 36.804-9.926 75.403-15.345 115.337-15.345 17.023 0 33.859 1.070 50.353 2.978 40.506 4.62 79.332 14.695 115.828 29.436 0.037-0.001-300.874 297.738-308.89 308.887v0zM338.051 410.357l-224.556-224.592c4.203-8.592 8.747-16.992 13.518-25.236 18.976-33.062 42.451-64.213 70.703-92.428 12.026-12.065 24.702-23.173 37.756-33.52 31.952-25.39 66.429-45.736 102.698-61.080-0.001-0.001-2.292 423.302-0.119 436.856v0zM82.267 500.11c-9.888-36.804-15.307-75.402-15.307-115.336 0-17.024 1.069-33.897 3.015-50.393 4.583-40.542 14.622-79.369 29.435-115.789 0 0 297.706 300.911 308.853 308.89h-317.671c-3.054-8.931-5.803-18.132-8.325-27.372v0zM289.073 770.479c-33.061-19.013-64.214-42.494-92.391-70.665-12.139-12.104-23.21-24.779-33.556-37.756-25.352-31.921-45.736-66.506-61.119-102.736 0 0 423.377 2.253 436.895 0.076l-224.597 224.593c-8.548-4.273-16.987-8.742-25.232-13.512v0z"  horiz-adv-x="1024" />

    
    <glyph glyph-name="yonghu" unicode="&#58894;" d="M511.998465-61.724551c245.766426 0 445.725574 199.960171 445.725574 445.724551 0 245.76438-199.959148 445.724551-445.725574 445.724551-245.76438 0-445.723527-199.961194-445.723527-445.724551C66.274938 138.23562 266.233062-61.724551 511.998465-61.724551L511.998465-61.724551zM511.998465 774.009621c215.066217 0 390.010645-174.943404 390.010645-390.009621 0-215.059054-174.944428-390.010645-390.010645-390.010645-215.065194 0-390.008598 174.951591-390.008598 390.010645C121.989867 599.065194 296.933271 774.009621 511.998465 774.009621L511.998465 774.009621zM511.998465 677.742091c96.075149 0 173.984566-77.250408 173.984566-172.573427 0-95.294366-77.875648-172.536588-173.984566-172.536588-96.102778 0-173.951821 77.249385-173.951821 172.536588C338.046644 600.491683 415.927409 677.742091 511.998465 677.742091L511.998465 677.742091zM511.998465 381.952364c68.633147 0 124.276445 55.18895 124.276445 123.250068 0 68.088748-55.643298 123.249045-124.276445 123.249045-68.633147 0-124.274398-55.19202-124.274398-123.249045C387.724067 437.112662 443.365318 381.952364 511.998465 381.952364L511.998465 381.952364zM511.998465 381.952364c137.291876 0 248.551866-110.355387 248.551866-246.503207l-49.714262 0c0 108.87978-89.021499 197.181895-198.837604 197.181895-109.814058 0-198.839651-88.302115-198.839651-197.181895l-49.711192 0C263.448646 271.596977 374.709659 381.952364 511.998465 381.952364L511.998465 381.952364zM511.998465 381.952364"  horiz-adv-x="1024" />

    
    <glyph glyph-name="lajitong" unicode="&#58926;" d="M463.943236 152.941799 463.943236 437.880751c0 12.900417-10.455621 23.355014-23.356038 23.355014-12.899393 0-23.355014-10.454598-23.355014-23.355014l0-284.938952c0-12.899393 10.455621-23.355014 23.355014-23.355014C453.488638 129.586784 463.943236 140.042405 463.943236 152.941799zM421.902777 610.712155l177.501998 0c12.900417 0 23.356038 10.455621 23.356038 23.356038s-10.455621 23.356038-23.356038 23.356038L421.902777 657.424231c-12.900417 0-23.355014-10.455621-23.355014-23.356038S409.002361 610.712155 421.902777 610.712155zM711.512323 498.60563c-11.298866 0-20.718851-8.024129-22.885294-18.684421l-0.46972 0 0-369.018846c0-10.318491-8.366953-18.685444-18.685444-18.685444L351.836711 92.216919c-10.318491 0-18.684421 8.366953-18.684421 18.685444L333.15229 479.92121l-0.46972 0c-2.167466 10.660292-11.586429 18.684421-22.886318 18.684421s-20.718851-8.024129-22.886318-18.684421l-0.46972 0 0-406.387688c0-15.477225 12.549406-28.026631 28.026631-28.026631l392.374884 0c15.477225 0 28.026631 12.549406 28.026631 28.026631L734.868361 479.92121l-0.46972 0C732.232198 490.581502 722.811189 498.60563 711.512323 498.60563zM604.076392 152.941799 604.076392 437.880751c0 12.900417-10.454598 23.355014-23.355014 23.355014-12.899393 0-23.355014-10.454598-23.355014-23.355014l0-284.938952c0-12.899393 10.455621-23.355014 23.355014-23.355014C593.621794 129.586784 604.076392 140.042405 604.076392 152.941799zM776.908819 582.685524 244.40078 582.685524c-12.900417 0-23.356038-10.455621-23.356038-23.356038s10.455621-23.356038 23.356038-23.356038l532.50804 0c12.899393 0 23.355014 10.455621 23.355014 23.356038S789.808213 582.685524 776.908819 582.685524z"  horiz-adv-x="1024" />

    
    <glyph glyph-name="fenxiang" unicode="&#58927;" d="M870.258744 374.71631c-6.33455-6.391618-17.405746-8.446067-25.709142-8.446067-8.303397 0-17.86229 2.054449-24.225374 8.446067-12.6691 12.81177-12.6691 37.29395 0 50.077186L913.088292 558.418261c-9.872767-0.057068-18.43297 0-28.534009 0-271.272825 0-496.634429-167.380497-542.146173-428.010137l-57.068018 0c46.795775 297.067569 263.1977 485.078155 570.680182 485.078155 12.640566 0 44.313316-0.028534 57.068018 0l-121.298073 136.906176c-12.6691 12.81177-12.6691 37.208348 0 49.991584 12.6691 12.81177 37.236882 12.81177 49.934516 0L1027.224328 586.95227 870.258744 374.71631zM57.068018 501.350243l0-656.28221 856.020274 0-0.028534 450.152528L970.15631 358.680197l0-513.612164c0-36.181124-21.200769-57.068018-57.068018-57.068018L57.096552-211.971451c-35.867249 0-57.068018 13.867528-57.068018 50.077186L0 501.350243c0 36.181124 21.200769 57.068018 57.068018 57.068018l313.8741 0-57.068018-57.068018L57.068018 501.350243z"  horiz-adv-x="1028" />

    
    <glyph glyph-name="toast-error" unicode="&#58940;" d="M512-32c-229.376 0-416 186.624-416 416s186.624 416 416 416 416-186.624 416-416-186.624-416-416-416zM512 736c-194.112 0-352-157.888-352-352 0-194.048 157.888-352 352-352 194.048 0 352 157.952 352 352 0 194.112-157.952 352-352 352zM384 416c0-17.664-14.336-32-32-32v0c-17.664 0-32 14.336-32 32v64c0 17.664 14.336 32 32 32v0c17.664 0 32-14.336 32-32v-64zM704 416c0-17.664-14.336-32-32-32v0c-17.664 0-32 14.336-32 32v64c0 17.664 14.336 32 32 32v0c17.664 0 32-14.336 32-32v-64zM370.432 187.968c-7.744 0-15.488 2.752-21.632 8.384-13.056 11.968-13.888 32.192-1.984 45.248 42.368 46.144 102.528 72.64 165.184 72.64 62.592 0 122.752-26.496 165.056-72.64 11.968-12.992 11.072-33.28-1.92-45.184-12.928-12.032-33.152-11.136-45.184 1.92-60.544 65.984-175.552 65.92-235.904 0-6.336-6.912-14.976-10.368-23.616-10.368z"  horiz-adv-x="1024" />

    
    <glyph glyph-name="up" unicode="&#58906;" d="M80.293721 124.632947c-10.391674-10.42749-16.129352-24.355711-16.129352-39.258119 0-14.866592 5.736655-28.794813 16.165168-39.258119 10.42749-10.42749 24.391527-16.202007 39.293935-16.165168 14.830777 0 28.686343 5.736655 39.078017 16.202007l353.070314 353.034499L864.769462 46.152525c21.650089-21.650089 56.901964-21.650089 78.552054 0 10.42749 10.42749 16.165168 24.355711 16.165168 39.222303 0 14.902408-5.736655 28.830629-16.165168 39.258119L511.771803 556.075213 80.293721 124.632947z"  horiz-adv-x="1024" />

    
    <glyph glyph-name="zuanshiline" unicode="&#58903;" d="M965.48991 472.588777 834.760496 692.023488c-8.516977 14.295588-27.487028 25.075095-44.128033 25.075095L239.417323 717.098583c-16.639982 0-35.611056-10.779507-44.128033-25.076118L64.559876 472.588777c-2.791579-4.684696-5.403057-9.125845-7.353478-12.502755-0.976234-1.690502-1.760087-3.067872-2.294252-4.031826-1.224898-2.211365-4.952802-8.94165-0.666172-16.48444l4.41659-7.767917 1.814322 0c2.075265-2.532683 4.878101-5.986341 8.274454-10.218736l421.817048-525.83817c2.632967-3.281743 5.750981-5.967922 9.175987-7.993045l4.158716-2.065032c3.629667-1.480724 7.497765-2.272763 11.444657-2.272763 3.949962 0 7.822153 0.793062 11.453866 2.276856l4.146437 2.058892c3.427052 2.025123 6.54609 4.712325 9.179057 7.995091l421.817048 525.837146C973.04498 435.419226 974.569706 457.347654 965.48991 472.588777zM935.765935 462.500001 719.096197 462.500001l93.988628 205.926046L935.765935 462.500001zM515.186064 675.37532l150.393265-212.875319L364.793822 462.500001 515.186064 675.37532zM338.030271 477.820941l-95.199199 208.578456 242.556315 0L338.030271 477.820941zM544.985764 686.399397l242.556315 0-95.199199-208.578456L544.985764 686.399397zM674.139286 431.800815 515.334443-60.64585 356.245122 431.800815 674.139286 431.800815zM217.148134 668.733039l94.128821-206.232015L94.283852 462.501024 217.148134 668.733039zM99.907942 431.800815l224.075405 0 151.08809-467.679585L99.907942 431.800815zM706.39492 431.800815l224.391606 0L555.546284-35.972914 706.39492 431.800815z"  horiz-adv-x="1024" />

    
    <glyph glyph-name="fangzi" unicode="&#58991;" d="M528.671193 722.838308l186.497555-152.72845 0.127913 77.003791 133.285632-0.127913 0.340761-183.982268 110.432135-116.997668-29.67588-31.722492L781.640672 475.283142l25.241894 10.915607 0.959861 119.919207-51.741431-0.064468-0.38374-107.575064-38.885636 15.036461L527.411503 667.323946l-405.121807-353.040638-26.605961 31.722492L528.671193 722.838308zM204.666868-89.410987l226.662323 0 0.340761 230.755548 190.334953 0.340761 0.682545-231.096309 226.15067 0L848.83812 266.467279l-40.932248 0 0-315.456648-144.797827 0 0 232.290507-272.711102-0.511653 0-231.778854-144.797827 0L245.599116 266.467279l-40.932248 0L204.666868-89.410987 204.666868-89.410987z"  horiz-adv-x="1024" />

    
    <glyph glyph-name="guanbi" unicode="&#58891;" d="M512-120.977778C279.506489-120.977778 91.022222 67.483733 91.022222 300 91.022222 532.493511 279.506489 720.977778 512 720.977778 744.516267 720.977778 932.977778 532.493511 932.977778 300 932.977778 67.483733 744.516267-120.977778 512-120.977778zM512 675.466667C304.651378 675.466667 136.533333 507.348622 136.533333 300S304.651378-75.466667 512-75.466667C719.371378-75.466667 887.466667 92.651378 887.466667 300S719.371378 675.466667 512 675.466667zM531.8656 289.782756l121.719467-121.878756c8.829156-8.874667 8.829156-23.233422 0-32.108089-8.8064-8.874667-23.096889-8.874667-31.880533 0l-121.901511 122.083556-121.992533-121.355378c-8.897422-8.897422-23.301689-8.897422-32.176356 0-8.897422 8.897422-8.897422 23.278933 0 32.176356l121.992533 121.378133-119.284622 119.466667c-8.829156 8.874667-8.829156 23.233422 0 32.108089 8.8064 8.874667 23.074133 8.874667 31.880533 0l119.489422-119.671467 121.742222 121.059556c8.897422 8.897422 23.278933 8.897422 32.176356 0 8.897422-8.874667 8.897422-23.278933 0-32.176356L531.8656 289.782756z"  horiz-adv-x="1024" />

    
    <glyph glyph-name="arrowup" unicode="&#58928;" d="M276.48 95.2l471.04 0-235.5712 409.6z"  horiz-adv-x="1024" />

    
    <glyph glyph-name="dianzan" unicode="&#58929;" d="M936.46076 377.136821c-19.866467 32.019251-53.592592 50.050929-88.612177 51.427276-1.815345 0.280386-3.65832 0.466628-5.548366 0.466628l-205.092052 0.223081c13.908778 39.759539 21.50785 82.482573 21.50785 126.996392 0 28.869514-3.279696 56.961316-9.29776 84.020602l-0.541329-0.069585c-10.945283 47.400566-53.327556 82.779332-104.060007 82.779332-59.042721 0-106.896612-47.859008-106.896612-106.891496 0-3.26537 0.205685-6.475482 0.485047-9.67229-3.172249-113.469308-92.074022-205.450209-204.270337-213.480092l0-0.690732-121.93819-0.284479c-1.474584 0.181125-2.958378 0.302899-4.473895 0.302899-20.299325 0-36.756135-16.451694-36.756135-36.745902l-0.330528-441.110463c0-20.290115 16.446577-36.741809 36.745902-36.741809 1.992377 0 3.933589 0.200568 5.840008 0.50449l135.654586-0.056282c1.795902-0.270153 3.607154-0.448208 5.467525-0.448208 1.862417 0 3.667529 0.178055 5.450129 0.443092l509.99739-0.213871 0-0.220011c19.978007-0.036839 40.202631 5.337565 58.314127 16.84669 17.192567 10.937097 30.126134 25.950022 38.625716 42.932812 2.332115 3.387144 4.170996 7.198959 5.2864 11.397584l79.397305 350.455767c1.101077 4.155646 1.399883 8.330736 1.073448 12.393261C954.138374 333.892925 949.099614 356.772005 936.46076 377.136821zM291.316344-53.182878l-73.486688 0.017396 0.276293 367.111099c0 0 44.896536 0.283456 73.560366 9.1678L291.316344-53.182878z"  horiz-adv-x="1024" />

    
    <glyph glyph-name="jinggao" unicode="&#58883;" d="M942.049 491.131c-23.246 54.956-56.521 104.31-98.902 146.691-42.381 42.381-91.735 75.657-146.691 98.903-56.902 24.07-117.341 36.274-179.635 36.274-62.29 0-122.727-12.204-179.629-36.274-54.956-23.246-104.311-56.522-146.691-98.903-42.383-42.382-75.658-91.736-98.906-146.691-24.07-56.903-36.275-117.341-36.275-179.635 0-62.293 12.204-122.73 36.273-179.635 23.246-54.955 56.521-104.31 98.904-146.691 42.381-42.381 91.733-75.656 146.689-98.902 56.902-24.069 117.341-36.272 179.635-36.272s122.73 12.203 179.635 36.272c54.956 23.246 104.311 56.521 146.691 98.902 42.381 42.383 75.656 91.736 98.902 146.691 24.068 56.903 36.273 117.342 36.273 179.635C978.322 373.79 966.118 434.228 942.049 491.131zM882.874 156.865c-20.008-47.306-48.651-89.791-85.14-126.279s-78.976-65.135-126.279-85.143c-48.971-20.713-100.998-31.216-154.637-31.216-53.635 0-105.658 10.503-154.629 31.216-47.306 20.008-89.791 48.653-126.279 85.143s-65.135 78.975-85.145 126.279c-20.713 48.971-31.216 100.996-31.216 154.631s10.503 105.66 31.216 154.63c20.01 47.305 48.655 89.792 85.145 126.28 36.488 36.488 78.975 65.135 126.279 85.143 48.971 20.713 100.994 31.215 154.629 31.215s105.66-10.502 154.631-31.215c47.305-20.008 89.791-48.655 126.279-85.143 36.488-36.488 65.135-78.975 85.145-126.28 20.713-48.97 31.215-100.995 31.215-154.63S903.586 205.836 882.874 156.865zM512.693 553.701c-19.33 0-35-15.67-35-35l0-267.026c0-19.33 15.67-35 35-35s35 15.67 35 35L547.693 518.701C547.693 538.031 532.023 553.701 512.693 553.701zM512.402 180.416c-19.33 0-35-15.67-35-35l0-35.249c0-19.33 15.67-35 35-35s35 15.67 35 35l0 35.249C547.402 164.746 531.732 180.416 512.402 180.416z"  horiz-adv-x="1024" />

    
    <glyph glyph-name="tag" unicode="&#58884;" d="M918.415778 255.357244 548.962332-112.32179c-45.38363-45.119617-118.863155-45.119617-164.188456 0L97.416192 173.639081c-45.324278 45.149293-45.324278 118.311593 0 163.402557L466.868615 704.720671c28.217668 29.468149 33.630958 42.384319 63.24544 42.384319l375.265826 0c29.613458 0 53.587476-23.88192 53.587476-53.354162l0-373.464807C958.967356 290.81685 942.151365 279.035526 918.415778 255.357244zM146.264737 216.354951l281.412274-279.988856c22.162766-22.104437 58.107419-22.104437 80.326467 0l39.761586 39.562041L186.942181 336.751019 146.264737 296.332471C124.108111 274.260779 124.108111 238.427666 146.264737 216.354951zM897.193431 659.465978c0 14.411221-11.734252 26.115797-26.260084 26.115797L555.967886 685.581776c-14.46955 0-35.033911-16.432251-47.963385-29.250184L227.101833 376.770478 588.437391 16.345662 869.737102 296.332471c14.126742 14.101159 27.456329 35.263132 27.456329 49.704029L897.193431 659.465978zM610.518293 398.337679c-45.324278 45.11757-45.324278 118.281917 0 163.402557 45.382607 45.11757 118.864178 45.11757 164.185386 0 45.38363-45.119617 45.38363-118.284987 0-163.402557C729.382471 353.217039 655.900899 353.217039 610.518293 398.337679zM733.629191 520.895993c-22.63144 22.543436-59.401902 22.543436-82.035388 0-22.690792-22.576181-22.690792-59.140958 0-81.71714 22.633486-22.573111 59.403948-22.573111 82.035388 0C756.31896 461.755034 756.31896 498.319811 733.629191 520.895993z"  horiz-adv-x="1024" />

    
    <glyph glyph-name="more" unicode="&#58890;" d="M512 769.333333C252.8 769.333333 42.666667 559.2 42.666667 300s210.133333-469.333333 469.333333-469.333333 469.333333 210.133333 469.333333 469.333333S771.2 769.333333 512 769.333333zM512-84c-211.754667 0-384 172.245333-384 384 0 211.754667 172.245333 384 384 384 211.754667 0 384-172.245333 384-384C896 88.245333 723.754667-84 512-84zM725.333333 342.666667l-170.666667 0L554.666667 513.333333c0 23.594667-19.072 42.666667-42.666667 42.666667s-42.666667-19.072-42.666667-42.666667l0-170.666667L298.666667 342.666667c-23.594667 0-42.666667-19.072-42.666667-42.666667s19.072-42.666667 42.666667-42.666667l170.666667 0 0-170.666667c0-23.594667 19.072-42.666667 42.666667-42.666667s42.666667 19.072 42.666667 42.666667l0 170.666667 170.666667 0c23.594667 0 42.666667 19.072 42.666667 42.666667S748.928 342.666667 725.333333 342.666667z"  horiz-adv-x="1024" />

    
    <glyph glyph-name="gongwenbao" unicode="&#58897;" d="M933.957168-128.290636 254.021606-128.290636c-74.025193 0-134.249784 60.223645-134.249784 134.249784L119.771822 465.444624c0 74.025193 60.223645 134.249784 134.249784 134.249784l679.935562 0c74.025193 0 134.249784-60.223645 134.249784-134.249784L1068.206952 5.958203C1068.206952-68.06699 1007.982361-128.290636 933.957168-128.290636zM254.021606 561.84825c-53.156821 0-96.403626-43.246805-96.403626-96.403626L157.61798 5.958203c0-53.156821 43.246805-96.403626 96.403626-96.403626l679.935562 0c53.156821 0 96.403626 43.246805 96.403626 96.403626L1030.360794 465.444624c0 53.156821-43.246805 96.403626-96.403626 96.403626L254.021606 561.84825zM325.801576 77.960519 325.801576 77.960519c-9.366924 0-17.029825 7.663847-17.029825 17.029825L308.771751 380.241568c0 9.366924 7.663847 17.029825 17.029825 17.029825l0 0c9.365978 0 17.029825-7.663847 17.029825-17.029825l0-285.251225C342.831401 85.623419 335.167554 77.960519 325.801576 77.960519zM862.716506 77.960519 862.716506 77.960519c-9.366924 0-17.029825 7.663847-17.029825 17.029825L845.686681 380.241568c0 9.366924 7.663847 17.029825 17.029825 17.029825l0 0c9.365978 0 17.029825-7.663847 17.029825-17.029825l0-285.251225C879.746331 85.623419 872.08343 77.960519 862.716506 77.960519zM479.619716 616.349557c7.406493 0 10.571378 6.950447 10.571378 14.355994l0 5.728962c0 25.211218 35.274512 54.353706 58.727776 54.353706l95.299465 0c23.45421 0 54.94316-30.088642 54.94316-55.29986l0-5.728962c0-7.406493 4.111985-13.40984 11.517532-13.40984l11.671755 0c7.406493 0 13.40984 6.004293 13.40984 13.40984L735.760622 639.922982c0 46.038905-45.450397 86.544702-88.280895 86.544702l-104.408089 0c-42.830497 0-91.119356-39.560589-91.119356-85.598548l0-10.163586c0-7.406493 6.004293-14.355994 13.40984-14.355994L479.619716 616.349557z"  horiz-adv-x="1154" />

    
    <glyph glyph-name="xiangji" unicode="&#58882;" d="M928.8 573.266 781.606 573.266 704.8 695l-384 0L244 573.266 96.8 573.266c-32 0-96-30.432-96-90.349l0-487.891c0-50.406 48-91.296 89.331-91.296l840.666 0c42.003 0 94.003 42.797 94.003 90.349L1024.8 481.97C1024.8 512.395 992.8 573.266 928.8 573.266zM960.794-5.928c0-12.006-20.461-28.8-30.003-29.485L90.317-35.413c-7.405 0.57-25.517 14.291-25.517 30.432L64.8 482.91c0 19.27 27.232 28.992 32 29.485L244 512.395l36.237 0 18.643 29.562 58.157 92.173 313.638 0 57.127-92.192 17.594-29.543 36.218 0L928.8 512.395c22.56 0 31.686-28.026 31.994-30.432L960.794-5.928zM512.8 481.963c-123.718 0-224-95.373-224-213.037s100.282-213.037 224-213.037 224.006 95.373 224.006 213.037C736.8 386.59 636.518 481.963 512.8 481.963zM512.8 116.766c-88.211 0-159.994 68.263-159.994 152.166 0 83.898 71.782 152.173 159.994 152.173 88.218 0 160-68.269 160-152.173S601.018 116.766 512.8 116.766z"  horiz-adv-x="1025" />

    
    <glyph glyph-name="zan" unicode="&#58930;" d="M947.593308 343.539632c0.320295-3.987824 0.023536-8.085142-1.058099-12.171204l-77.963653-344.129688c-1.094938-4.118807-2.90005-7.867178-5.186116-11.19497-8.351202-16.667611-21.047362-31.414477-37.927821-42.153052-17.784038-11.296277-37.645388-16.576537-57.264215-16.541745l0 0.215918-500.79582 0.211824c-1.749854-0.258896-3.524267-0.438998-5.345752-0.438998-1.829671 0-3.610224 0.180102-5.373381 0.445138l-133.206838 0.057305c-1.873674-0.303922-3.777023-0.50142-5.735631-0.50142-19.928888 0-36.080753 16.152888-36.080753 36.078707l0.327458 433.153234c0 19.928888 16.158005 36.080753 36.08894 36.080753 1.487887 0 2.947122-0.11768 4.393054-0.297782l119.740128 0.278339 0 0.680499c110.170169 7.886621 197.469444 98.202603 200.584388 209.627345-0.278339 3.13541-0.475837 6.287193-0.475837 9.495258 0 57.969273 46.989197 104.96461 104.96461 104.96461 49.816592 0 91.436502-34.738176 102.184287-81.284281l0.532119 0.068562c5.90857-26.574239 9.129938-54.160527 9.129938-82.507132 0-43.710524-7.461949-85.660962-21.115923-124.703163l201.388706-0.215918c1.854231 0 3.665483-0.186242 5.447059-0.458441 34.386158-1.352811 67.505463-19.057031 87.011726-50.502208C944.261423 387.796602 949.213201 365.327868 947.593308 343.539632M153.845389-10.019823 226.000755-10.053592l0.274246 360.484168-72.088852-0.161682L153.845389-10.019823 153.845389-10.019823zM870.950743 370.094428c-6.934946 11.181667-19.188015 17.059538-31.463596 16.398482l0 0.106424c-0.030699 0-0.062422 0-0.093121 0l-254.56072 0.264013c-19.922748 0-36.07973 16.158005-36.07973 36.087916 0 5.735631 1.37737 11.144828 3.764744 15.959483l-0.38374 0.315178c14.414291 26.833135 24.898063 56.084343 30.845519 86.942141l0.451278-0.013303c0 0 4.797259 19.482727 4.733814 56.850799-0.049119 29.602202-5.445012 56.627718-5.445012 56.627718l-0.272199 0c0.023536 0.524956 0.079818 1.037632 0.079818 1.569752 0 18.629289-15.107069 33.737382-33.738405 33.737382-18.637476 0-33.744545-15.108093-33.744545-33.737382 0-0.778736 0.067538-1.546216 0.11768-2.311649l-0.469698-0.00614c0 0 0.576121-28.169573-5.051039-57.381895-2.385327-12.394285-5.742794-23.951505-8.795317-33.106002-0.063445 0.030699-0.118704 0.056282-0.180102 0.085958-30.367635-92.843548-106.726743-164.812673-202.161303-189.05582l-0.347924-369.506658 470.205105-0.193405c1.589195 0 3.139503-0.135076 4.672416-0.338714 4.692882 0.620124 9.327436 2.243087 13.586436 4.950755 6.046716 3.838422 10.43363 9.290597 13.004175 15.436574l0.094144-0.054235 75.066673 331.328128-0.291642 0.085958C877.496833 350.505277 876.544135 361.07603 870.950743 370.094428"  horiz-adv-x="1024" />

    
    <glyph glyph-name="mima" unicode="&#58895;" d="M246.604514 131.225973 246.604514 434.64547c0 13.385868 6.357801 24.653493 14.987343 33.495882 7.535627 7.728008 19.397792 13.740956 34.360576 13.740956l430.02908 0c13.196557 0 25.719778-4.384867 34.613332-13.484106 8.713452-8.903787 15.239076-19.644409 15.239076-33.238009l0-304.435641c0-6.845918-2.139733-14.414291-4.399193-19.141966-1.671059-3.502777-4.303003-7.629771-6.79066-10.532891-8.016581-9.307993-19.289322-17.561981-35.141358-17.561981L292.935726 83.487715c-10.564613 0-21.26021 4.432962-29.096688 11.401678C253.491365 104.099149 246.604514 116.186442 246.604514 131.225973L246.604514 131.225973zM334.218968 532.192134c-24.193005 0-53.866838 1.715061-74.813916-6.882757-8.604982-3.527336-16.681938-8.290827-23.952528-14.096043-12.307304-9.809413-21.297049-22.191418-28.291346-36.348859-5.14416-10.397814-9.398044-26.808576-9.398044-42.276872l0-300.333206c0-18.98233 5.853311-39.925315 16.753569-55.307653 8.316409-11.719926 18.171871-22.620184 30.598902-29.894867 13.244652-7.752568 28.243251-13.876032 46.306652-13.876032l439.09148 0c13.845333 0 29.000498 4.568039 38.278815 9.234315 32.341592 16.239869 55.885821 50.776454 55.885821 88.313372L824.678372 434.130747c0 20.99108-7.234775 41.407062-18.916838 57.205886-2.740414 3.698229-5.215792 7.164167-8.389064 10.446933-1.190105 1.212618-2.054799 2.142803-3.28072 3.330862-1.286296 1.274016-1.970888 1.543146-3.28072 2.817162-12.150738 11.805884-30.034037 19.839861-46.691415 22.730701-6.766101 1.163499-15.816221 1.530866-23.676236 1.530866L384.071376 532.193157c-0.060375 3.000334-4.362354 20.611433-5.071506 24.089651-4.771677 23.587208-13.052271 50.51858-13.052271 74.474179 0 16.753569 1.238201 29.061896 4.927219 44.26004 2.187829 8.977465 5.14416 17.525142 9.025561 25.706475 8.833179 18.602683 21.38096 34.95307 37.065174 47.959292 7.475252 6.209422 15.274892 11.009751 23.844058 15.737426 13.784958 7.605212 28.724205 12.479219 44.264133 15.443737 33.038464 6.306636 68.047816 1.224898 96.688109-16.337083 1.058099-0.648776 1.826602-1.298576 2.740414-1.824555 1.370207-0.796132 1.790786-0.89437 3.148713-1.922792 9.398044-7.115048 18.881023-14.120602 26.668383-23.134907 7.740288-8.965186 15.119349-18.72548 20.527522-29.380144 14.770402-29.172413 14.554484-37.757952 22.474874-67.958788 1.406023-5.351891 2.439562-10.679223 4.01443-15.920598 5.203512-17.34197 27.137057-22.913872 40.105417-9.699919 2.079358 2.130524 3.786233 4.249791 4.987594 7.237845 3.629667 9.05012 2.139733 12.82305 0.204661 21.946848l-5.612834 23.024389c-3.89368 18.333554-9.374508 37.023218-17.678638 53.862745-4.771677 9.67536-9.482979 18.639522-15.263635 27.555589-7.414877 11.413957-16.068977 21.750373-25.563212 31.438013l-14.939247 13.520945c-15.035438 12.051477-31.692816 21.567201-49.576115 28.511357l-15.960507 5.290493c-1.947352 0.551562-3.508917 1.102101-5.468548 1.604544-9.987468 2.559289-20.274766 3.613294-30.574343 4.776793l-26.90886-0.147356c-10.804067-1.604544-12.391215-1.077541-24.74559-3.502777-4.121877-0.820692-7.451716-1.506307-11.537777-2.620687-2.139733-0.575098-3.690042-0.771573-5.66093-1.420349-12.042267-3.968381-24.312732-8.181333-35.646871-13.96199-9.121751-4.653997-18.195408-9.993608-26.343995-16.264429l-7.992021-6.233981c-15.996322-12.907984-28.65155-28.40084-39.948851-45.509497-1.11745-1.715061-1.562589-2.718925-2.619664-4.51892-2.631944-4.457522-5.480828-9.05012-7.499811-13.925151-2.895957-6.993275-5.901407-12.700253-8.220219-20.354584-0.648776-2.105964-1.238201-3.037173-1.874697-5.278213-0.636496-2.191922-0.985444-3.429099-1.658779-5.511527-1.201361-3.722788-1.922792-7.458879-2.895957-11.401678-2.644223-10.654664-4.939499-26.367531-4.831029-38.210253 0.048095-5.229095-0.853437-8.205892-0.144286-13.484106l0.648776-13.716396C318.739415 596.023928 334.218968 539.209968 334.218968 532.192134L334.218968 532.192134zM463.127919 336.069361l0-6.662747c0-17.500583 12.42703-33.985022 23.663956-40.047088 0-21.910009 0-43.807738 0-65.717747 0-14.781658-1.658779-29.061896 11.789511-37.267788 12.222369-7.470135 26.284643-3.196809 33.134655 7.886621 4.939499 7.972579 3.918239 16.447601 3.918239 28.866445 0 22.080901 0 44.150546 0 66.231447 22.690792 12.234649 31.716352 46.416146 16.128329 70.334905-5.311982 8.156774-12.642948 15.173584-21.801539 18.848277-12.715603 5.107321-26.331715 5.229095-38.927591-0.576121-1.430582-0.661056-2.102894-1.212618-3.569292-2.02103-1.514493-0.845251-2.416026-1.530866-3.690042-2.388397-1.370207-0.918929-1.862417-1.261737-3.148713-2.437515-5.805216-5.315052-8.881274-8.756431-12.631692-16.386202C465.555202 349.773478 463.127919 343.221248 463.127919 336.069361L463.127919 336.069361z"  horiz-adv-x="1024" />

    
    <glyph glyph-name="shoucang" unicode="&#58909;" d="M874.533 475.743c-3.125 9.323-11.176 16.13-20.922 17.64l-221.651 34.219-99.053 212.039c-4.291 9.218-13.534 15.123-23.703 15.15h-0.053c-10.145 0-19.36-5.853-23.73-15.044l-100.060-211.826-222.315-33.292c-9.613-1.641-17.507-8.475-20.526-17.718-3.046-9.243-0.662-19.413 6.118-26.406l161.080-165.69-38.456-233.464c-1.615-9.879 2.542-19.89 10.779-25.689 8.184-5.8 18.991-6.436 27.782-1.563l198.266 109.064 197.868-109.753c3.946-2.197 8.343-3.31 12.713-3.31 5.296 0 10.567 1.563 15.069 4.793 8.21 5.774 12.422 15.758 10.833 25.664l-37.662 233.57 161.479 165.001c6.86 6.993 9.243 17.294 6.145 26.617v0zM660.164 311.352c-5.8-5.933-8.475-14.302-7.125-22.512l31.146-193.339-163.28 90.577c-7.892 4.397-17.48 4.397-25.372 0.053l-163.676-90.050 31.835 193.234c1.326 8.184-1.298 16.553-7.098 22.537l-135.576 139.469 185.474 26.697c1.853 0.318 3.603 0.822 5.271 1.483 6.489 2.225 12.078 6.94 15.23 13.613l82.049 173.688 81.336-174.138c3.708-7.919 11.123-13.48 19.784-14.831l185.024-28.551-135.021-137.933z"  horiz-adv-x="1024" />

    
    <glyph glyph-name="bianji" unicode="&#58931;" d="M119.928832-147.681536l643.183616 0c30.886912 0 55.929856 25.04192 55.929856 55.927808L819.042304 317.80224l-55.929856-53.395456 0-356.160512L119.928832-91.753728 119.928832 607.361792l392.909824 0 56.544256 54.480896-1.462272 1.447936L119.928832 663.290624c-30.885888 0-55.928832-25.042944-55.928832-55.928832l0-699.114496C64-122.639616 89.042944-147.681536 119.928832-147.681536zM915.935232 711.224064c-25.233408 24.196096-53.088256 36.458496-82.80064 36.458496-46.507008 0-80.42496-30.040064-89.65632-39.230464-13.080576-12.916736-383.789056-383.0784-383.789056-383.0784-2.90816-2.963456-5.03808-6.582272-6.117376-10.609664-10.036224-37.113856-60.366848-201.856-60.858368-203.493376-2.593792-8.43776-0.273408-17.642496 5.940224-23.786496 4.46464-4.48 10.418176-6.85568 16.52224-6.85568 2.403328 0 4.819968 0.356352 7.195648 1.093632 1.707008 0.572416 171.718656 55.545856 199.697408 63.901696 3.687424 1.091584 7.046144 3.086336 9.803776 5.789696 17.655808 17.424384 358.391808 352.874496 385.974272 381.35808 28.510208 29.412352 42.684416 59.998208 42.1376 90.966016C959.465472 654.312192 944.582656 683.765504 915.935232 711.224064zM877.674496 571.674368c-15.565824-16.057344-137.418752-136.46336-362.186752-357.885952l-17.205248-16.958464c-25.765888-7.975936-87.471104-27.8016-134.115328-42.848256 15.020032 49.59232 33.04448 109.507584 41.07264 137.841664 48.036864 47.96928 365.628416 365.0816 377.699328 376.988672 2.349056 2.349056 23.786496 22.939648 50.194432 22.939648 14.993408 0 29.438976-6.841344 44.10368-20.905984 17.532928-16.822272 26.571776-32.989184 26.817536-48.091136C904.329216 607.217408 895.453184 590.040832 877.674496 571.674368z"  horiz-adv-x="1024" />

    
    <glyph glyph-name="wujiaoxingkong1" unicode="&#58892;" d="M748.115114-119.784762c-10.288321 0-20.626783 2.539846-29.954219 7.344269l-206.233038 101.505835L303.88459-112.665621c-20.119223-10.626012-47.928592-8.762571-67.367317 5.424546-19.614733 13.963013-29.730115 38.774095-25.65838 62.961984l42.893926 220.306568L90.136392 327.154453c-17.972327 17.524119-24.359804 43.519166-16.73208 66.6377 7.40362 23.284309 27.300786 40.23947 51.829436 43.913139l227.084948 41.201377 101.788268 204.878181c11.07729 22.210861 33.288151 36.000935 57.876152 36.000935 24.470321 0 47.194882-14.186094 57.81987-36.172851l101.731986-204.593701 227.709165-40.015366c23.961738-3.558036 43.855834-20.400632 51.373041-43.913139 7.570419-22.99983 1.183965-49.001017-16.277732-66.011436L770.215458 176.027477l41.484833-219.908502c4.239558-24.418133-5.880941-49.229215-25.828248-63.585177C775.074116-115.3211 761.565451-119.784762 748.115114-119.784762L748.115114-119.784762zM511.983115 39.42531l226.524177-111.454418c7.40362-3.89982 14.919804-3.052522 20.795629 1.183965 6.05081 4.412496 9.099239 11.758812 7.857968 18.934235l-46.061059 244.043179 181.986821 169.723519c4.803399 4.690836 6.726192 12.379958 4.462638 19.273972-2.316765 7.175423-8.250918 12.20702-15.653515 13.280468l-250.715135 43.969421L529.166473 663.664603c-6.502088 13.393032-27.92091 13.33675-34.591843-0.060375l-111.847367-225.109967L132.637368 393.055372c-8.02886-1.186012-13.96199-6.27389-16.165168-13.281491-2.376117-7.062859-0.397043-14.750959 4.803399-19.895119L302.925752 192.078035l-47.589878-244.496503c-1.130753-6.722098 1.866511-14.127765 7.689123-18.310018 6.161327-4.52199 14.128789-5.031597 20.514219-1.641383L511.983115 39.42531 511.983115 39.42531z"  horiz-adv-x="1024" />

    
    <glyph glyph-name="reload" unicode="&#58885;" d="M896 300c0-212.1-171.9-384-384-384S128 87.9 128 300s171.9 384 384 384c113.6 0 215.7-49.4 286-127.8L640.5 556.2l0-64 28.1 0 175.9 0 52 0 0 0.5 0.5 0 0 36.5L897 748.7l-64 0 0-136.2C751.6 696.1 637.9 748 512 748 264.6 748 64 547.4 64 300s200.6-448 448-448 448 200.6 448 448L896 300z"  horiz-adv-x="1024" />

    
    <glyph glyph-name="copyurl" unicode="&#58944;" d="M106.666 704h64v-768h-64v768zM106.666 0h704v-64h-704v64zM746.666 832h-448c-64 0-64-65.6-64-65.6v-638.4c0-64 64-64 64-64h576c64 0 64 64 64 64v512l-192 192zM810.666 192h-448v64h448v-64zM810.666 320h-448v64h448v-64zM810.666 448h-448v64h448v-64zM746.666 640v128l128-128h-128z"  horiz-adv-x="1024" />

    
    <glyph glyph-name="pinglunhuifu" unicode="&#58932;" d="M819.789-0.977l0-158.697-156.847 96.562c-21.75-3.552-44.075-5.628-67.001-5.628-107.742 0-204.254 41.231-270.86 106.344 10.971-0.628 21.874-1.421 33.022-1.421 15.63 0 31.041 0.765 46.288 1.994 52.587-36.204 119.083-57.954 191.548-57.954 24.975 0 49.131 2.842 72.411 7.705l54.486-36.342c-0.055-0.027-0.108-0.054-0.164-0.082l41.153-27.24 0 99.131c84.16 47.434 139.904 129.351 139.904 222.635 0 58.993-22.516 113.312-60.17 157.413 2.487 17.214 4.208 34.633 4.208 52.435 0 8.142-0.874 16.08-1.421 24.1 69.679-57.982 113.344-139.666 113.344-230.45 0.001-101.836-54.868-192.252-139.903-250.505zM428.057 99.138c-22.925 0-45.264 2.076-67.001 5.629l-156.845-96.562 0 158.669c-85.035 58.281-139.904 148.697-139.904 250.533 0 175.774 162.858 318.269 363.75 318.269 200.894 0 363.75-142.494 363.75-318.269 0-175.774-162.856-318.269-363.75-318.269zM428.057 679.715c-169.988 0-307.789-119.024-307.789-265.807 0-93.27 55.744-175.174 139.904-222.635l0-99.131 41.151 27.241c-0.069 0.027-0.123 0.055-0.177 0.082l54.514 36.341c23.267-4.864 47.422-7.704 72.398-7.704 169.988 0 307.789 118.995 307.789 265.807 0 146.783-137.801 265.806-307.789 265.806zM609.933 371.939c-23.172 0-41.972 18.785-41.972 41.97 0 23.171 18.8 41.97 41.972 41.97 23.173 0 41.972-18.799 41.972-41.97-0.001-23.184-18.8-41.97-41.972-41.97zM442.048 371.939c-23.185 0-41.972 18.785-41.972 41.97 0 23.171 18.786 41.97 41.972 41.97s41.972-18.799 41.972-41.97c0-23.184-18.786-41.97-41.972-41.97zM274.163 371.939c-23.185 0-41.971 18.785-41.971 41.97 0 23.171 18.786 41.97 41.971 41.97s41.972-18.799 41.972-41.97c-0.001-23.184-18.787-41.97-41.972-41.97z"  horiz-adv-x="1024" />

    
    <glyph glyph-name="fanhui" unicode="&#58919;" d="M512 753.398c-204.398 0-370.094-165.697-370.094-370.094s165.697-370.094 370.094-370.094 370.094 165.697 370.094 370.094-165.697 370.094-370.094 370.094zM512 50.221c-183.958 0-333.085 149.126-333.085 333.085s149.126 333.085 333.085 333.085 333.085-149.126 333.085-333.085-149.126-333.085-333.085-333.085zM593.683 566.492l-26.169 26.17-209.356-209.356 209.356-209.356 26.169 26.17-183.188 183.187z"  horiz-adv-x="1024" />

    
    <glyph glyph-name="sousuo" unicode="&#58935;" d="M429.043636 7.148186c-51.498908 0-101.479229 9.898441-148.551314 29.421077-45.490054 18.865673-86.3476 45.876863-121.437793 80.282464-35.132148 34.447557-62.723553 74.582649-82.008782 119.28885-19.99131 46.342468-30.127158 95.560426-30.127158 146.283668s10.136871 99.939153 30.127158 146.281621c19.285229 44.706201 46.876634 84.84027 82.008782 119.286804 35.090193 34.405601 75.947739 61.416791 121.437793 80.282464 47.072085 19.522636 97.052406 29.420053 148.551314 29.420053 51.498908 0 101.478206-9.898441 148.551314-29.420053 45.490054-18.865673 86.3476-45.876863 121.43677-80.282464 35.132148-34.446533 62.724577-74.580602 82.009805-119.286804 19.99131-46.342468 30.127158-95.558379 30.127158-146.281621s-10.135848-99.9412-30.127158-146.283668c-19.285229-44.706201-46.877657-84.841294-82.008782-119.28885-35.090193-34.405601-75.947739-61.417815-121.437793-80.282464C530.522865 17.046626 480.542544 7.148186 429.043636 7.148186zM429.043636 696.297838c-176.849824 0-320.726675-140.80284-320.726675-313.873594 0-173.072801 143.877875-313.877687 320.726675-313.877687 176.848801 0 320.726675 140.804886 320.726675 313.877687C749.770312 555.494998 605.89346 696.297838 429.043636 696.297838zM759.364409 95.621216l193.366578-192.956845-43.371087-43.463183-193.366578 192.956845 43.371087 43.463183Z"  horiz-adv-x="1024" />

    
    <glyph glyph-name="unfold-copy" unicode="&#58888;" d="M497.888 300.288l197.28 205.44c10.432 8.864 25.968 7.504 34.688-3.024 8.736-10.528 7.36-26.24-3.072-35.088l-197.28-205.424c-10.432-8.864-25.968-7.504-34.688 3.008s-7.376 26.24 3.072 35.088zM328.321 505.744l197.28-205.44c10.432-8.864 11.808-24.56 3.089-35.088-8.736-10.528-24.272-11.872-34.688-3.024l-197.28 205.44c-10.432 8.848-11.808 24.56-3.072 35.088 8.688 10.528 24.224 11.888 34.672 3.024z"  horiz-adv-x="1024" />

    
    <glyph glyph-name="kulianjianying" unicode="&#58887;" d="M511.997438 896c-282.795784 0-511.99693-229.201146-511.99693-511.99693 0-282.802948 229.201146-512.00307 511.99693-512.00307 282.666848 0 512.002047 229.334175 512.002047 512.00307C1023.999484 666.799878 794.798339 896 511.997438 896zM328.071452 635.732301c38.535665 0 69.863161-51.999304 69.863161-116.130927s-31.327496-116.137067-69.863161-116.137067c-38.535665 0-69.864184 52.005444-69.864184 116.137067S289.534763 635.732301 328.071452 635.732301zM747.064174 100.763171c0 0-111.200638 69.729108-230.930533 69.729108-122.531708 0-239.470023-69.729108-239.470023-69.729108l0 69.194942c0 0 117.866455 69.736271 239.470023 69.736271 120.53319 0 230.930533-69.736271 230.930533-69.736271L747.064174 100.763171zM686.837488 403.465331c-38.529525 0-69.863161 52.005444-69.863161 116.137067s31.333636 116.130927 69.863161 116.130927c38.535665 0 69.871347-51.999304 69.871347-116.130927S725.374176 403.465331 686.837488 403.465331z"  horiz-adv-x="1024" />

    
    <glyph glyph-name="icon" unicode="&#58948;" d="M713.123 295.251c-10.877 12.076-29.462 13.049-41.55 2.183l-118.428-106.102-142.775 190.153c-5.15 6.874-13.004 11.156-21.579 11.728-8.604 0.461-16.923-2.589-22.96-8.71l-353.594-358.138c-11.422-11.579-11.308-30.209 0.289-41.619 5.724-5.665 13.205-8.481 20.687-8.481 7.595 0 15.22 2.932 20.976 8.77l224.255 227.129 156.469-208.447c5.786-7.735 14.62-11.787 23.596-11.787 6.158 0 12.342 1.93 17.635 5.895 13.037 9.743 15.683 28.194 5.902 41.191l-161.773 215.507 63.484 64.295 141.536-188.512c4.948-6.609 12.457-10.838 20.687-11.641 8.173-0.69 16.402 1.868 22.559 7.389l120.502 107.964 206.247-228.404c10.874-12.076 29.491-13.025 41.604-2.131 12.086 10.865 13.037 29.494 2.131 41.563l-225.9 250.202zM710.879 656.609c16.286 0 29.465 13.162 29.465 29.434v76.26c0 16.271-13.18 29.434-29.465 29.434-16.283 0-29.462-13.162-29.462-29.434v-76.26c0-16.272 13.179-29.434 29.462-29.434zM710.879 368.265c63.159 0 114.545 51.307 114.545 114.404 0 63.095-51.386 114.434-114.545 114.434-63.157 0-114.545-51.339-114.545-114.434-0.001-63.098 51.388-114.404 114.545-114.404zM710.879 538.234c30.672 0 55.619-24.922 55.619-55.565 0-30.611-24.947-55.536-55.619-55.536-30.672 0-55.617 24.924-55.617 55.536 0 30.642 24.945 55.565 55.617 55.565zM430.974 461.945h76.334c16.288 0 29.465 13.169 29.465 29.434 0 16.269-13.177 29.436-29.465 29.436h-76.334c-16.286 0-29.465-13.169-29.465-29.436 0-16.266 13.18-29.434 29.465-29.434zM990.783 520.816h-76.334c-16.286 0-29.462-13.169-29.462-29.436 0-16.266 13.177-29.434 29.462-29.434h76.334c16.286 0 29.465 13.169 29.465 29.434 0.001 16.268-13.179 29.436-29.465 29.436zM546.094 605.669c5.756-5.747 13.296-8.624 20.836-8.624 7.537 0 15.076 2.878 20.831 8.624 11.508 11.498 11.508 30.124 0 41.625l-59.615 59.561c-11.513 11.495-30.157 11.495-41.665 0-11.508-11.501-11.508-30.124 0-41.627l59.614-59.558zM833.999 359.699c-11.506-11.503-11.506-30.127 0-41.625l59.618-59.557c5.756-5.75 13.293-8.626 20.833-8.626 7.537 0 15.076 2.878 20.831 8.626 11.508 11.495 11.508 30.122 0 41.619l-59.615 59.563c-11.514 11.499-30.158 11.499-41.666 0zM541.751 359.699l-28.83-28.804c-11.513-11.498-11.513-30.127 0-41.621 5.753-5.75 13.291-8.626 20.833-8.626 7.537 0 15.074 2.878 20.829 8.626l28.83 28.802c11.508 11.498 11.508 30.122 0 41.625-11.507 11.498-30.154 11.498-41.662-0.001zM854.832 597.046c7.537 0 15.081 2.878 20.833 8.624l59.615 59.557c11.508 11.503 11.508 30.127 0 41.627-11.506 11.495-30.154 11.495-41.663 0l-59.618-59.561c-11.506-11.501-11.506-30.127 0-41.625 5.757-5.747 13.296-8.623 20.834-8.623z"  horiz-adv-x="1024" />

    
    <glyph glyph-name="dianhua" unicode="&#58900;" d="M715.833897-61.531146c-55.903218 0-128.07598 37.244252-178.778756 68.489884-67.902506 41.845037-141.05355 99.728352-205.977211 162.988118l-0.236384 0.233314-20.615527 20.61962c-63.259766 64.922638-121.143081 138.074705-162.988118 205.978235-31.244608 50.701752-68.489884 122.875538-68.489884 178.777733 0 59.821457 42.779316 123.31863 61.171198 147.842163 14.352893 19.136849 64.49285 81.575924 107.096157 81.575924 17.492396 0 36.334533-11.449773 61.093427-37.126572 21.896706-22.707165 42.912345-50.929949 56.686047-70.607104 18.494213-26.419719 35.599799-54.083779 48.165999-77.894068 20.35049-38.559201 22.704095-55.091736 22.704095-64.173578 0-18.330484-9.572006-34.227546-28.448936-47.25014-12.431124-8.575306-27.353998-15.030321-41.785685-21.272489-9.730619-4.208858-25.269523-10.929934-31.197536-15.653515 2.067079-8.759501 11.107989-29.913287 35.535331-65.776076 22.763446-33.420157 52.199872-69.63701 78.791507-96.943936 27.301809-26.589588 63.515592-56.026014 96.939843-78.790484 35.855626-24.421202 57.010435-33.463136 65.771983-35.532261 4.724605 5.929036 11.44568 21.466917 15.654538 31.196513 6.243191 14.431687 12.698207 29.355585 21.275559 41.786709 13.023618 18.876929 28.921703 28.448936 47.252187 28.448936 9.080819 0 25.613354-2.353604 64.172555-22.704095 23.810289-12.5662 51.473325-29.67281 77.893045-48.165999 19.677155-13.773701 47.89994-34.789341 70.607104-56.686047 25.676799-24.75787 37.126572-43.600007 37.126572-61.092403 0-42.60433-62.439074-92.745311-81.5749-107.09718C839.15355-18.75183 775.6574-61.531146 715.833897-61.531146zM366.903879 206.475817c62.282508-60.670801 132.234697-116.051109 196.993606-155.959028 62.786998-38.692231 118.166283-60.882626 151.936411-60.882626 30.081109 0 72.969918 18.370393 114.723881 49.140187 18.306948 13.490246 34.967396 28.513404 46.913473 42.304502 11.211343 12.941753 15.307637 21.383006 16.35141 24.795732-4.330632 9.304923-30.063713 38.403658-90.1236 79.836303-23.557532 16.251126-47.914266 31.185256-68.583005 42.051745-25.954115 13.643742-36.766368 15.999392-39.244816 16.387225-0.958838-0.657986-3.790326-3.02387-8.083096-10.224876-4.810562-8.068769-9.43386-18.754133-13.903661-29.088502-5.504364-12.724813-11.195993-25.88146-18.176988-36.499285-11.354606-17.271362-25.295106-26.030863-41.432645-26.037003-0.293689-0.002047-0.597611 0.00307-0.905626 0.010233-7.855922 0.167822-31.766494 0.678452-96.674806 44.887326-35.839253 24.409946-74.752518 56.063877-104.090707 84.673471l-0.456395 0.456395c-28.609595 29.343305-60.261479 68.254523-84.669378 104.08866-44.213991 64.912405-44.723597 88.820931-44.890396 96.676853-0.352017 16.430204 8.316409 30.618345 25.764803 42.168402 10.667967 7.061836 23.935132 12.799514 36.764322 18.348903 10.333346 4.468778 21.017686 9.091052 29.085432 13.899568 7.199982 4.291746 9.567913 7.123234 10.225899 8.082072-0.388856 2.478448-2.743484 13.290701-16.387225 39.242769-10.865465 20.668739-25.799596 45.025473-42.050722 68.583005-41.432645 60.060911-70.532403 85.792968-79.837326 90.125647-3.412726-1.043772-11.852956-5.140067-24.795732-16.35141-13.791098-11.9471-28.814256-28.607548-42.303478-46.913473-30.769794-41.756009-49.140187-84.642772-49.140187-114.723881 0-33.769105 22.191418-89.147366 60.882626-151.935388 39.907918-64.759933 95.28925-134.712121 155.960051-196.99463L366.903879 206.475817z"  horiz-adv-x="1024" />

    
    <glyph glyph-name="weixin1" unicode="&#58938;" d="M693.12 506.070c11.776 0 23.36-0.896 35.008-2.176-31.36 146.048-187.456 254.528-365.696 254.528-199.232 0-362.432-135.744-362.432-308.224 0-99.52 54.272-181.248 145.024-244.736l-36.224-108.992 126.72 63.488c45.312-8.896 81.664-18.112 126.912-18.112 11.392 0 22.656 0.512 33.792 1.344-7.040 24.256-11.2 49.6-11.2 76.032 0.064 158.336 136 286.848 308.096 286.848zM498.304 604.31c27.392 0 45.376-17.984 45.376-45.248 0-27.136-17.984-45.312-45.376-45.312-27.072 0-54.336 18.176-54.336 45.312 0 27.328 27.2 45.248 54.336 45.248zM244.672 513.75c-27.2 0-54.592 18.176-54.592 45.312 0 27.264 27.392 45.248 54.592 45.248s45.248-17.92 45.248-45.248c0-27.136-18.048-45.312-45.248-45.312zM1024 223.574c0 144.896-145.024 262.976-307.904 262.976-172.48 0-308.224-118.144-308.224-262.976 0-145.28 135.808-262.976 308.224-262.976 36.096 0 72.512 9.024 108.736 18.112l99.392-54.528-27.264 90.624c72.768 54.656 127.040 127.040 127.040 208.768zM616.128 268.95c-17.984 0-36.224 17.92-36.224 36.224 0 18.048 18.24 36.224 36.224 36.224 27.52 0 45.376-18.176 45.376-36.224 0-18.304-17.856-36.224-45.376-36.224zM815.488 268.95c-17.856 0-36.032 17.92-36.032 36.224 0 18.048 18.112 36.224 36.032 36.224 27.264 0 45.376-18.176 45.376-36.224 0-18.304-18.112-36.224-45.376-36.224z"  horiz-adv-x="1024" />

    
    <glyph glyph-name="weiyouji" unicode="&#58901;" d="M776.958534-36.189991c-2.989077 0-5.992481 0.724501-8.746198 2.15406L511.086188 98.820935 253.962086-34.036955c-6.325056-3.300162-13.997805-2.780323-19.797905 1.39886-5.782703 4.117784-8.683776 11.125385-7.483438 18.054191l49.113581 281.479813L67.780733 466.231863c-5.121648 4.919033-6.967692 12.259208-4.754281 18.921955 2.212388 6.709819 8.094352 11.56336 15.171538 12.585643l287.472294 41.066301L494.235404 794.871765c6.333242 12.650111 27.370371 12.650111 33.703613 0l128.565121-256.066003 287.470247-41.066301c7.078209-1.022283 12.960173-5.875824 15.171538-12.585643 2.212388-6.66377 0.367367-14.003945-4.752234-18.921955L746.378052 266.896932l49.111534-281.479813c1.202385-6.928806-1.696642-13.936407-7.479345-18.054191C784.732591-34.995793 780.851191-36.189991 776.958534-36.189991zM511.086188 138.173199c3.00238 0 6.011924-0.691755 8.746198-2.121314l232.16157-119.973442-44.347021 254.151397c-1.046842 5.972015 0.982374 12.08627 5.40408 16.3422l187.821713 179.990351-259.558547 37.087687c-6.120394 0.848321-11.406794 4.650927-14.141068 10.089799L511.086188 744.944656 395.001309 513.739876c-2.734274-5.438872-8.021697-9.241478-14.145162-10.089799l-259.557524-37.087687 187.823759-179.990351c4.419659-4.25593 6.449899-10.371208 5.40408-16.3422l-44.349067-254.151397 232.16157 119.973442C505.07631 137.481444 508.085854 138.173199 511.086188 138.173199z"  horiz-adv-x="1024" />

    
    <glyph glyph-name="wodefujin" unicode="&#58902;" d="M144.269801-63.131597l79.727833 303.999712 79.725786 0 0-32.013111-47.835472 0-63.782675-239.98884 637.815497 0-63.782675 239.98884-63.780629 0 0 32.013111 95.67299 0 79.725786-303.999712L144.269801-63.131597zM520.472975 42.639379l-12.147668-14.46648-12.098549 14.506389C485.685681 55.328375 238.127446 354.140948 238.127446 549.30079c0 156.589384 121.428583 283.989983 270.666536 283.989983 148.592246 0 270.02083-127.386272 270.689049-283.920398C780.310885 354.140948 531.092847 55.299723 520.472975 42.639379zM508.793982 800.950204c-131.674948 0-238.804874-112.904443-238.804874-251.649414 0-159.712515 188.30676-407.579789 238.430344-470.677872 50.368154 63.040778 239.890602 310.912146 239.220337 470.609311C747.049341 688.031435 639.900995 800.950204 508.793982 800.950204zM392.785851 558.362166c0 64.970734 52.04126 117.830639 116.009154 117.830639 63.974034 0 116.01734-52.859905 116.01734-117.830639 0-64.98506-52.043307-117.842919-116.01734-117.842919C444.826088 440.519248 392.785851 493.377106 392.785851 558.362166zM508.793982 472.874143c46.413076 0 84.157725 38.363749 84.157725 85.488023 0 47.12632-37.743626 85.461417-84.157725 85.461417-46.402843 0-84.149539-38.335097-84.149539-85.461417C424.645466 511.236869 462.391139 472.874143 508.793982 472.874143z"  horiz-adv-x="1024" />

    
    <glyph glyph-name="feekr" unicode="&#58898;" d="M418.625868 219.168907M808.380686 218.523201 734.43044 350.216569 804.646642 427.407626 745.063615 427.407626 700.601984 382.911202 700.601984 549.390841 659.047566 531.543358 659.047566 218.523201 700.601984 218.523201 700.601984 308.931281 758.8322 218.523201ZM65.06846 549.378561l0-329.956897 78.313623 0c0 0-23.462365 26.835182-31.019481 76.972069-4.736884 31.41243-0.337691 59.579957-0.337691 59.579957l89.668229 0 5.442966 34.043351-91.368964 0c0 0 3.539616 33.93488 4.119831 43.285852 0.632403 10.227945 7.870248 61.444421-30.507828 80.760348 0 0 0.396019 1.084705 3.03308 2.309602 2.729158 1.269923 6.40078 1.781576 16.259312-0.678452 8.129144-2.031263 11.544941-4.487198 26.618241-1.225921 24.056905 5.204535 42.084491 7.427156 61.921281-0.170892 9.892301-3.78828 22.981411-12.56006 25.944905-23.747867l9.382695 58.82885L65.06846 549.378561zM404.95552 323.585025c0 57.520041-40.608883 104.148012-90.702792 104.148012-50.093908 0-90.706885-46.62797-90.706885-104.148012 0-57.521065 40.612976-104.150058 90.706885-104.150058 38.98592 0 72.219835 28.246321 85.044932 67.88511L357.5877 287.320077c-9.69685-16.078187-25.489534-26.555819-43.342134-26.555819-26.291806 0-48.127114 22.707165-52.555983 52.599985l142.831033 0.013303C404.802024 316.73706 404.95552 320.137507 404.95552 323.585025zM314.245566 388.342912c22.75526 0 42.173518-17.016559 49.858548-40.971134l-99.718119 0C272.072047 371.326353 291.489282 388.342912 314.245566 388.342912zM848.07985 427.733037l41.460274 0 0-44.469817c0 0 14.263865 19.705807 50.41011 19.705807 7.691169 0 16.934694 0 16.934694 0l0-43.50484c0 0-27.579125 1.288343-42.756803-9.29469-14.432711-10.066263-24.586978-23.419386-24.586978-37.998429 0-9.541307 0-92.764753 0-92.764753l-41.460274 0L848.080873 427.733037zM613.684402 323.585025c0 57.520041-40.608883 104.148012-90.702792 104.148012-50.094932 0-90.707908-46.62797-90.707908-104.148012 0-57.521065 40.612976-104.150058 90.707908-104.150058 38.98592 0 72.218812 28.246321 85.045955 67.88511l-41.714054 0c-9.69378-16.078187-25.488511-26.555819-43.342134-26.555819-26.291806 0-48.126091 22.707165-52.553936 52.599985l142.831033 0.013303C613.528859 316.73706 613.684402 320.137507 613.684402 323.585025zM522.972401 388.342912c22.756283 0 42.175565-17.016559 49.862641-40.971134l-99.720166 0C480.799906 371.326353 500.217141 388.342912 522.972401 388.342912z"  horiz-adv-x="1024" />

    
    <glyph glyph-name="luxian" unicode="&#58904;" d="M418.625868 219.168907M886.14991 606.624357c-39.400359 0-71.430866-32.054043-71.430866-71.429843 0-9.570983 1.953492-18.696828 5.392824-27.058262L608.669178 311.33605c-11.328 7.567349-24.908296 12.021801-39.525202 12.021801-7.417947 0-14.5903-1.215688-21.467941-3.393283l-67.568908 85.134982c5.0449 9.915837 8.012488 20.798698 8.012488 32.253588 0 39.373753-32.029484 71.427796-71.429843 71.427796-39.399335 0-71.427796-32.054043-71.427796-71.427796 0-3.611248 0.668219-7.077186 1.187035-10.586103l-170.535001-133.735887c-11.054777 7.001461-24.038486 11.232832-38.08848 11.232832-39.399335 0-71.429843-32.054043-71.429843-71.431889 0-39.399335 32.030507-71.453379 71.429843-71.453379 39.400359 0 71.427796 32.054043 71.427796 71.453379 0 7.274684-1.408069 14.172791-3.436262 20.778232l164.896584 129.303948c0.444115-0.372483 0.765433-0.86367 1.211595-1.213641 12.638855-10.18906 28.54001-15.804964 44.790112-15.804964 9.448186 0 18.62315 1.855254 27.108405 5.344728l64.974827-81.868589c-6.927783-11.128455-11.081383-23.865547-11.081383-37.446867 0-39.397289 32.029484-71.451332 71.427796-71.451332 39.375799 0 71.430866 32.054043 71.430866 71.451332 0 6.583952-1.187035 12.812817-2.843768 18.847254l216.067011 201.081715c9.771551-5.019317 20.654412-8.110725 32.378431-8.110725 39.375799 0 71.429843 32.054043 71.429843 71.428819C957.604312 574.545754 925.550269 606.624357 886.14991 606.624357zM137.824507 210.892407c-12.119015 0-21.963221 9.847276-21.963221 21.99085 0 12.091386 9.844206 21.959128 21.963221 21.959128 12.120039 0 21.963221-9.843182 21.963221-21.959128C159.812287 220.739682 149.944546 210.892407 137.824507 210.892407zM402.963143 420.234249c-5.217838 4.231371-8.236592 10.464329-8.236592 17.142425 0 12.091386 9.844206 21.963221 21.962198 21.963221 12.120039 0 21.964244-9.844206 21.964244-21.963221 0-5.862521-2.276856-11.377118-6.40692-15.507182 0 0 0 0 0-0.024559 0-0.028653 0 0-0.023536 0C423.516248 413.185716 408.205541 416.030507 402.963143 420.234249zM569.143976 229.961718c-12.116969 0-21.963221 9.843182-21.963221 21.988804 0 6.877641 3.118014 13.183254 8.609075 17.414625 0.099261 0.071631 0.246617 0.096191 0.345877 0.195451l0.024559 0.025583c2.696412 2.000564 7.02295 4.327562 13.010315 4.327562 12.092409 0 21.962198-9.845229 21.962198-21.963221C591.108221 239.830483 581.262992 229.961718 569.143976 229.961718zM886.14991 513.231293c-12.119015 0-21.963221 9.844206-21.963221 21.962198 0 12.120039 9.844206 21.964244 21.963221 21.964244 12.093433 0 21.963221-9.844206 21.963221-21.964244C908.113131 523.075499 898.269949 513.231293 886.14991 513.231293z"  horiz-adv-x="1024" />

    
    <glyph glyph-name="wujiaoxingshixin" unicode="&#58893;" d="M226.729 25.005c19.205 55.849 0.663 119.878 28.383 176.621 16.098 33.11-4.027 55.365-24.358 76.642-41.665 43.683-85.191 85.382-125.843 129.969-46.018 50.735-29.543 99.893 38.235 109.137 46.715 6.334 93.593 21.558 138.507 22.204 72.513 1.184 94.459 45.851 118.050 97.557 17.478 38.461 34.155 77.863 56.836 113.094 32.305 50.023 73.393 50.55 104.611-0.007 31.263-51.098 56.836-105.892 81.962-160.421 12.549-27.459 28.524-43.905 59.749-44.429 58.602-0.663 113.027-25.206 172.244-28.524 65.124-3.546 83.434-53.316 41.058-103.186-40.327-47.441-85.908-90.457-129.667-134.747-23.847-24.337-30.59-47.391-21.212-83.714 15.040-58.139 22.081-119.173 25.133-179.428 2.567-50.222-47.582-81.279-87.57-50.525-131.923 101.738-256.709 100.306-388.516-0.707-41.783-32.175-88.591 3.782-87.602 60.95z"  horiz-adv-x="1024" />

    
    <glyph glyph-name="0040dujia" unicode="&#59012;" d="M245.736107 502.063787c-10.407253-5.205333-20.51072-10.420907-30.757547-15.33952-17.015467-8.168107-33.80224-7.540053-49.626453 2.83648-14.21312 9.3184-21.76 22.859093-22.09792 39.939413-2.123093 106.881707 78.8992 203.49952 184.425813 220.14976 61.402453 9.68704 117.541547-3.058347 168.198827-39.243093 3.584-2.56 6.990507-5.502293 9.980587-8.731307 2.8672-3.09248 5.082453-6.785707 7.441067-10.018133 15.694507 22.831787 39.53664 34.49856 63.952213 44.485973 129.174187 52.824747 272.800427-23.456427 301.806933-160.28672 3.157333-14.895787 4.358827-30.440107 4.478293-45.697707 0.28672-35.730773-37.04832-59.20768-69.604693-44.346027-9.294507 4.242773-18.312533 9.096533-27.460267 13.656747-1.64864 0.822613-3.334827 1.56672-5.66272 2.655573 0.986453-7.266987 1.989973-13.89568 2.771627-20.55168 3.467947-29.525333 0.877227-58.56256-7.36256-87.094613-10.827093-37.495467-51.869013-49.913173-81.626453-24.746667-19.28192 16.305493-38.560427 32.6144-57.84576 48.91648-0.873813 0.740693-1.798827 1.419947-3.792213 2.99008 1.194667-2.54976 1.757867-3.884373 2.430293-5.164373 29.26592-55.913813 45.96736-115.33312 49.923413-178.343253 4.201813-66.92864-6.147413-131.474773-30.74048-193.87392-7.051947-17.896107-26.641067-32.314027-47.209813-32.269653-146.0736 0.314027-292.150613 0.2048-438.227627 0.252587-13.796693 0.003413-24.436053 8.91904-25.767253 21.387947-1.409707 13.2096 6.51264 24.558933 19.329707 27.313493 2.95936 0.63488 6.099627 0.57344 9.157973 0.57344 74.574507 0.027307 149.149013 0.023893 223.720107 0.023893 2.013867 0 4.02432 0 6.30784 0 0.354987 3.116373 0.53248 5.802667 0.98304 8.441173 1.5872 9.311573 5.96992 17.24416 11.752107 24.634027 42.994347 54.9376 67.560107 117.131947 72.994133 186.740053 4.532907 58.07104-4.795733 113.831253-28.402347 167.144107-0.965973 2.18112-1.931947 4.365653-2.798933 6.58432-0.805547 2.05824-1.481387 4.164267-2.41664 6.823253-1.518933-1.348267-2.911573-2.505387-4.215467-3.75808-35.96288-34.48832-71.949653-68.95616-107.86816-103.492267-28.28288-27.194027-68.399787-18.92352-83.33312 17.442133-16.489813 40.154453-20.732587 81.677653-13.093547 124.412587 0.211627 1.174187 0.385707 2.358613 0.50176 3.546453C246.029653 500.517547 245.87264 501.01248 245.736107 502.063787zM727.965013 406.152533c0.576853 1.61792 0.897707 2.38592 1.1264 3.181227 7.369387 25.87648 8.721067 52.145493 3.744427 78.51008-18.8928 100.089173-117.41184 161.826133-215.773867 135.560533-2.307413-0.617813-5.065387-0.54272-7.39328 0.06144-35.34848 9.147733-70.232747 7.912107-104.6528-4.4032-79.080107-28.289707-126.979413-112.16896-110.721707-194.48832 2.420053-12.25728 6.59456-24.169813 10.257067-37.311147 70.437547 67.560107 139.605333 133.901653 208.909653 200.372907C584.987307 527.121067 656.213333 466.858667 727.965013 406.152533zM834.2016 530.793813c0.72704 61.197653-34.58048 127.11936-101.676373 157.518507-62.808747 28.45696-132.87424 13.912747-174.025387-19.667627C650.267307 622.759253 741.89824 576.945493 834.2016 530.793813zM468.79744 668.822187c-51.51744 39.447893-126.706347 47.465813-188.70272 12.22656-64.5632-36.696747-88.97536-103.482027-87.036587-150.080853C284.972373 576.918187 376.6272 622.742187 468.79744 668.822187zM452.12672 61.91104c1.133227-0.2048 1.467733-0.314027 1.80224-0.31744 50.29888-0.017067 100.59776-0.003413 150.89664-0.088747 2.720427-0.003413 3.92192 1.006933 4.72064 3.454293 4.49536 13.74208 9.847467 27.255467 13.48608 41.216 4.580693 17.558187 7.796053 35.474773 11.793067 54.145707-3.406507 0-5.393067 0-7.379627 0-37.6832 0.003413-75.362987-0.06144-113.046187 0.11264-3.584 0.017067-5.307733-0.74752-6.744747-4.205227-13.458773-32.436907-31.040853-62.49472-52.640427-90.200747C454.109867 64.863573 453.311147 63.607467 452.12672 61.91104zM624.059733 309.89312c-6.915413-0.55296-13.103787-1.416533-19.3024-1.47456-20.292267-0.180907-40.587947-0.068267-60.880213-0.068267-1.785173 0-3.57376 0-5.74464 0-0.034133-33.67936-4.2496-66.11968-12.223147-98.256213 37.420373 0 74.001067 0 111.005013 0C636.849493 244.288853 632.548693 277.57568 624.059733 309.89312zM607.453867 358.15424c-0.09216 0.877227-0.03072 1.406293-0.208213 1.836373-18.292053 44.475733-43.97056 84.206933-76.7488 119.364267-0.733867 0.78848-2.11968 1.839787-2.860373 1.621333-8.393387-2.471253-16.72192-5.1712-25.265493-7.867733 1.20832-2.781867 2.08896-4.805973 2.973013-6.826667 14.462293-33.15712 24.183467-67.659093 29.013333-103.499093 0.53248-3.95264 1.7408-5.072213 5.628587-5.041493 20.985173 0.17408 41.97376 0.075093 62.962347 0.095573C604.409173 357.840213 605.876907 358.038187 607.453867 358.15424zM809.806507 12.209493c-16.03584 0-32.07168-0.04096-48.10752 0.013653-14.926507 0.0512-25.859413 10.38336-25.995947 24.449707-0.136533 14.001493 10.827093 24.767147 25.637547 24.81152 32.242347 0.095573 64.484693 0.095573 96.72704 0.003413 14.902613-0.04096 25.729707-10.605227 25.698987-24.712533-0.03072-14.114133-10.91584-24.500907-25.849173-24.552107C841.878187 12.168533 825.842347 12.209493 809.806507 12.209493z"  horiz-adv-x="1024" />

    
    <glyph glyph-name="bianji1" unicode="&#58936;" d="M950.995 713.772l-114.947 114.947c-19.91 19.91-50.683 19.91-70.595 0l-90.506-90.511 190.973-190.973 85.074 95.942c19.915 19.915 19.915 50.683 0 70.595zM61.294 129.992v-190.973h190.978l553.004 558.438-190.973 190.972-553.008-558.437zM465.439 35.309c-27.902 0-50.519-22.618-50.519-50.519s22.618-50.519 50.519-50.519c27.902 0 50.519 22.618 50.519 50.519 0 27.902-22.618 50.519-50.519 50.519zM667.515 35.309c-27.902 0-50.519-22.618-50.519-50.519s22.618-50.519 50.519-50.519 50.519 22.618 50.519 50.519c0.001 27.902-22.618 50.519-50.519 50.519zM869.591 35.309c-27.902 0-50.519-22.618-50.519-50.519s22.618-50.519 50.519-50.519c27.902 0 50.519 22.618 50.519 50.519 0 27.902-22.618 50.519-50.519 50.519z"  horiz-adv-x="1024" />

    
    <glyph glyph-name="11" unicode="&#58905;" d="M512.00512 441.10848c-14.33088 0-25.987413-11.666773-25.987413-25.997653s11.656533-25.98912 25.987413-25.98912c14.327467 0 25.985707 11.656533 25.985707 25.98912S526.332587 441.10848 512.00512 441.10848zM511.99488 401.36704c-7.58272 0-13.7472 6.16448-13.7472 13.743787 0 7.586133 6.162773 13.75232 13.7472 13.75232s13.754027-6.16448 13.754027-13.75232C525.748907 407.53152 519.579307 401.36704 511.99488 401.36704zM900.53632 681.127253c0 1.634987-0.636587 3.16928-1.798827 4.32128l-58.19392 58.210987c-2.317653 2.327893-6.362453 2.310827-8.66304 0l-203.7248-203.717973-1.68448 1.52576c-31.45216 28.545707-72.093013 44.260693-114.469547 44.260693-42.385067 0-83.04128-15.7184-114.47808-44.260693l-1.6896-1.52576L369.0496 566.715733l53.874347 53.879467c1.158827 1.160533 1.795413 2.694827 1.795413 4.33152 0 1.629867-0.638293 3.160747-1.795413 4.314453l-102.976853 102.99392-0.479573 0-0.500053 0.9728-68.647253 68.650667c-2.1504 2.152107-6.49728 2.152107-8.649387 0l-58.20416-58.20928c-2.384213-2.387627-2.384213-6.270293 0-8.6528L387.193173 531.268267l-1.53088-1.69472c-28.458667-31.424853-44.130987-72.029867-44.130987-114.32448l0-124.22144-35.012267 35.017387c-2.292053 2.281813-6.36416 2.281813-8.6528 0L125.253973 153.422507c-1.155413-1.148587-1.790293-2.684587-1.790293-4.32128 0-1.634987 0.636587-3.16928 1.790293-4.33152l58.210987-58.202453c2.310827-2.31936 6.34368-2.31936 8.644267 0l149.420373 149.418667 0-253.2352c0-3.761493 0.160427-7.74656 0.50176-12.55424 0.233813-3.1744 2.914987-5.66784 6.109867-5.66784l327.712427 0c3.18976 0 5.874347 2.486613 6.109867 5.66784 0.344747 4.56704 0.513707 8.67328 0.513707 12.56448l0 136.81664 91.199147-91.205973c2.3296-2.317653 6.362453-2.317653 8.6528 0l58.207573 58.202453c1.152 1.152 1.78688 2.694827 1.78688 4.33152 0 1.640107-0.63488 3.16928-1.78688 4.33152l-158.073173 158.06464 0 161.962667c0 42.287787-15.670613 82.889387-44.127573 114.32448l-1.53088 1.691307 26.79296 26.786133 53.886293-53.879467c2.31936-2.317653 6.331733-2.317653 8.6528 0l33.819307 33.829547 0.4864 0.98304 0.505173 0 16.428373 16.428373 0.484693 0.9728 0.4864 0 120.384853 120.395093C899.899733 677.95456 900.53632 679.499093 900.53632 681.127253zM196.432213 739.326293l49.5616 49.55648 8.06912-8.072533-24.773973-24.772267c-1.158827-1.158827-1.800533-2.69312-1.800533-4.32128 0-1.634987 0.64-3.181227 1.800533-4.34176 2.333013-2.317653 6.324907-2.327893 8.659627 0.011947l24.762027 24.772267 8.74496-8.738133L246.6816 738.635093c-1.155413-1.150293-1.790293-2.684587-1.790293-4.312747 0-1.636693 0.63488-3.172693 1.790293-4.333227 2.32448-2.321067 6.352213-2.321067 8.64768 0l24.773973 24.762027 8.74496-8.746667-24.772267-24.762027c-1.155413-1.153707-1.78688-2.694827-1.78688-4.33152 0-1.62816 0.631467-3.170987 1.78688-4.32128 2.307413-2.310827 6.32832-2.327893 8.6528 0l24.772267 24.772267 8.738133-8.73984-24.777387-24.782507c-2.38592-2.384213-2.38592-6.268587 0-8.6528 2.333013-2.3296 6.34368-2.310827 8.65792 0l24.772267 24.772267 8.74496-8.73984-24.77568-24.772267c-1.155413-1.150293-1.790293-2.69312-1.790293-4.32128 0-1.634987 0.63488-3.16928 1.790293-4.33152 2.315947-2.31936 6.3488-2.31936 8.644267 0l24.792747 24.772267 8.7296-8.746667-24.777387-24.762027c-2.382507-2.387627-2.382507-6.268587 0-8.654507 2.338133-2.3296 6.345387-2.310827 8.65792 0l24.772267 24.77568 8.738133-8.748373-24.767147-24.762027c-2.387627-2.38592-2.382507-6.268587 0-8.664747 2.310827-2.300587 6.3488-2.300587 8.64768 0l24.779093 24.782507 8.74496-8.746667-24.7808-24.772267c-1.160533-1.150293-1.795413-2.686293-1.795413-4.322987 0-1.62816 0.63488-3.170987 1.795413-4.33152 2.297173-2.300587 6.34368-2.300587 8.654507 0l24.772267 24.773973 8.746667-8.7296-24.789333-24.782507c-2.382507-2.384213-2.382507-6.268587 0-8.6528 2.321067-2.321067 6.350507-2.331307 8.649387 0l24.784213 24.772267 8.067413-8.064-49.54624-49.55648L196.432213 739.326293zM341.51936 253.30688l-153.729707-153.750187L138.238293 149.111467l8.062293 8.065707 24.777387-24.77568c2.310827-2.321067 6.340267-2.321067 8.64256 0 1.163947 1.160533 1.800533 2.69312 1.800533 4.32128 0 1.636693-0.636587 3.172693-1.795413 4.333227l-24.772267 24.772267 8.74496 8.741547 24.777387-24.777387c2.2784-2.292053 6.31808-2.321067 8.654507 0.01024 2.3808 2.37568 2.3808 6.270293-0.006827 8.651093l-24.777387 24.768853 8.746667 8.74496 24.772267-24.772267c2.307413-2.321067 6.341973-2.321067 8.64768 0 1.163947 1.160533 1.800533 2.691413 1.800533 4.32128 0 1.636693-0.63488 3.16928-1.795413 4.33152l-24.767147 24.772267 8.733013 8.741547 24.7808-24.779093c2.29888-2.300587 6.350507-2.300587 8.64256 0 2.3808 2.38592 2.3808 6.270293 0 8.65792l-24.767147 24.772267 8.736427 8.736427 24.773973-24.772267c2.32448-2.321067 6.324907-2.331307 8.67328 0.01024 2.37056 2.37568 2.37056 6.260053-0.01024 8.640853l-24.782507 24.78592 8.73984 8.736427 24.777387-24.772267c2.35008-2.341547 6.33344-2.310827 8.64768 0 2.382507 2.384213 2.382507 6.26688 0 8.6528l-24.772267 24.763733 8.73984 8.746667 24.772267-24.762027c2.321067-2.331307 6.35392-2.343253 8.644267-0.01024 1.163947 1.160533 1.805653 2.68288 1.805653 4.307627 0.00512 1.636693-0.63488 3.18464-1.795413 4.343467l-24.77568 24.77568 8.74496 8.738133 24.777387-24.763733c2.302293-2.321067 6.355627-2.321067 8.639147-0.01024 1.169067 1.170773 1.805653 2.691413 1.805653 4.329813 0 1.629867-0.64 3.172693-1.800533 4.33152l-24.767147 24.777387 8.743253 8.736427 24.777387-24.784213c2.310827-2.300587 6.33344-2.30912 8.6528 0.01024 2.3808 2.379093 2.37568 6.270293-0.01024 8.664747l-24.772267 24.763733 8.067413 8.065707 39.345493-39.34208 0-20.411733L341.51936 253.30176zM406.381227 532.954453c29.100373 26.1376 66.612907 40.538453 105.61536 40.538453 39.007573 0 76.514987-14.399147 105.62048-40.538453l1.87904-1.68448-71.64416-71.64416-1.665707 1.24416c-9.997653 7.493973-21.81632 11.461973-34.187947 11.461973-12.35968 0-24.18176-3.968-34.193067-11.461973l-1.65888-1.24416-71.642453 71.64416L406.381227 532.954453zM511.99488 370.146987c-24.79616 0-44.96896 20.169387-44.96896 44.96384 0 24.802987 20.171093 44.97408 44.96896 44.97408s44.96896-20.171093 44.96896-44.97408C556.96384 390.316373 536.79104 370.146987 511.99488 370.146987zM558.85312 382.421333l2.338133 0.064853c0.720213-0.298667 1.51552-0.457387 2.302293-0.457387l106.728107 0 0-116.498773-113.6896 113.71008L558.85312 382.421333zM354.018987 423.903573c1.93536 35.69152 16.192853 70.07232 40.147627 96.812373l1.6896 1.87904 71.635627-71.62368-1.24928-1.667413c-5.679787-7.558827-9.40544-16.513707-10.775893-25.87648l-0.303787-2.051413L353.877333 421.376 354.018987 423.903573zM353.7664 409.142613l101.362347 0 0.29184-2.05824c0.479573-3.396267 1.216853-6.654293 2.199893-9.685333l1.015467-3.135147-104.869547 0L353.7664 409.142613zM353.7664 382.030507l106.740053 0c0.77312 0 1.55136 0.15872 2.305707 0.47616l1.795413 0.738987 2.894507-3.96288-107.113813-107.112107-6.62528 6.62016 0 103.23968L353.7664 382.030507zM559.919787-23.236267l-95.839573 0 0 140.064427c0 26.417493 21.492053 47.916373 47.914667 47.916373 26.42432 0 47.924907-21.49888 47.924907-47.916373L559.919787-23.236267zM670.231893-17.23904c0-1.199787-0.01024-2.423467-0.05632-3.6864l-0.085333-2.310827L572.16-23.236267l0 140.064427c0 33.17248-26.9824 60.156587-60.161707 60.156587-33.170773 0-60.158293-26.985813-60.158293-60.156587l0-140.064427-97.94048 0-0.07168 2.321067c-0.037547 1.262933-0.05632 2.46784-0.05632 3.67616L353.77152 248.234667l122.374827 122.371413 1.65888-1.24416c10.016427-7.493973 21.840213-11.460267 34.203307-11.460267 12.361387 0 24.188587 3.966293 34.18112 11.460267l1.664 1.24416 107.096747-107.096747-53.879467-53.87776c-1.152-1.160533-1.788587-2.69312-1.788587-4.33152 0-1.631573 0.636587-3.170987 1.788587-4.322987l69.167787-69.164373 0-149.050027L670.231893-17.237333zM827.562667 90.9056l-49.55648-49.549653-8.065707 8.065707 24.76544 24.773973c1.160533 1.160533 1.795413 2.69312 1.795413 4.329813 0 1.629867-0.63488 3.172693-1.795413 4.324693-2.310827 2.327893-6.345387 2.310827-8.654507 0l-24.773973-24.77568-8.738133 8.738133 24.772267 24.77568c1.16224 1.158827 1.809067 2.701653 1.809067 4.33152 0 1.63328-0.646827 3.160747-1.798827 4.319573-2.317653 2.321067-6.341973 2.321067-8.661333 0l-24.77568-24.772267-8.736427 8.746667 24.772267 24.77568c1.16224 1.150293 1.798827 2.69312 1.798827 4.319573 0 1.6384-0.636587 3.170987-1.798827 4.33152-2.317653 2.321067-6.34368 2.321067-8.651093 0l-24.784213-24.772267-8.736427 8.736427 24.773973 24.773973c1.160533 1.152 1.79712 2.686293 1.79712 4.32128 0 1.629867-0.636587 3.172693-1.79712 4.33152-2.310827 2.321067-6.341973 2.321067-8.644267 0l-24.782507-24.762027-8.738133 8.726187 24.77568 24.773973c1.160533 1.16224 1.795413 2.694827 1.795413 4.333227s-0.63488 3.170987-1.795413 4.33152c-2.310827 2.302293-6.34368 2.302293-8.654507 0l-24.772267-24.77568-8.75008 8.7296 24.784213 24.782507c2.373973 2.384213 2.373973 6.270293 0 8.65792-2.310827 2.300587-6.34368 2.300587-8.664747 0l-24.762027-24.787627-8.751787 8.75008 24.777387 24.763733c2.382507 2.38592 2.382507 6.289067 0 8.67328-2.302293 2.292053-6.33344 2.310827-8.644267 0l-24.782507-24.782507-8.73984 8.73472 24.784213 24.779093c2.382507 2.382507 2.382507 6.26688 0 8.651093-2.310827 2.321067-6.347093 2.302293-8.664747 0l-24.77568-24.767147-8.736427 8.741547 24.773973 24.772267c1.163947 1.150293 1.800533 2.69312 1.800533 4.32128 0 1.636693-0.64 3.172693-1.800533 4.333227-2.315947 2.321067-6.345387 2.321067-8.6528 0l-24.782507-24.77568-8.064 8.065707 49.54624 49.553067L827.562667 90.9056zM670.231893 394.263893l-104.886613 0 1.030827 3.135147c0.960853 2.983253 1.71008 6.239573 2.20672 9.69216l0.298667 2.051413 101.352107 0L670.2336 394.263893zM669.975893 423.903573l0.14336-2.525867L568.832 421.377707l-0.3072 2.051413c-1.368747 9.35424-5.090987 18.29888-10.769067 25.885013l-1.24416 1.657173 71.625387 71.62368 1.693013-1.87904C653.79328 493.969067 668.049067 459.584853 669.975893 423.903573zM877.69088 673.053013l-24.773973 24.772267c-2.310827 2.3296-6.345387 2.310827-8.644267 0-2.39616-2.384213-2.39616-6.268587-0.008533-8.6528l24.782507-24.773973-8.748373-8.738133-24.782507 24.773973c-2.310827 2.300587-6.347093 2.300587-8.64768 0-1.155413-1.150293-1.795413-2.694827-1.795413-4.333227 0-1.62816 0.64-3.170987 1.795413-4.324693l24.779093-24.782507-8.73984-8.7296-24.772267 24.76544c-2.321067 2.33984-6.347093 2.317653-8.65792 0-1.160533-1.150293-1.795413-2.67776-1.795413-4.312747-0.01024-1.636693 0.62464-3.181227 1.78688-4.34176l24.773973-24.772267-8.736427-8.748373-24.773973 24.782507c-2.300587 2.31936-6.345387 2.31936-8.644267 0-1.16224-1.158827-1.795413-2.69312-1.795413-4.32128 0-1.629867 0.633173-3.160747 1.795413-4.32128l24.763733-24.782507-8.72448-8.73984-24.787627 24.762027c-2.30912 2.317653-6.350507 2.317653-8.651093 0-1.160533-1.150293-1.798827-2.686293-1.798827-4.32128 0-1.62816 0.638293-3.170987 1.798827-4.333227l24.772267-24.76544-8.736427-8.746667-24.773973 24.782507c-2.310827 2.321067-6.345387 2.321067-8.66304 0-2.37568-2.384213-2.37568-6.275413 0-8.66304l24.782507-24.76544-8.74496-8.746667-24.76544 24.782507c-2.310827 2.290347-6.35392 2.310827-8.654507 0-2.392747-2.384213-2.392747-6.268587 0-8.656213l24.76544-24.782507-8.736427-8.738133-24.784213 24.773973c-2.302293 2.302293-6.34368 2.302293-8.654507 0-2.368853-2.384213-2.368853-6.268587 0.01024-8.654507l24.77568-24.782507-8.73984-8.7296-24.772267 24.76544c-2.321067 2.317653-6.34368 2.317653-8.664747 0-2.384213-2.38592-2.384213-6.268587 0-8.654507l24.77568-24.772267-8.065707-8.065707-49.54624 49.547947 163.945813 163.954347 49.559893-49.54624L877.69088 673.053013z"  horiz-adv-x="1024" />

    
    <glyph glyph-name="jiqiao" unicode="&#58941;" d="M688.39936 342.43072c106.43968 7.44448 190.78144 96.50176 190.78144 204.9792 0 18.80576-2.69824 37.79072-8.00256 56.44288-2.21696 7.78752-8.36608 13.80864-16.19968 15.83616-7.7824 2.04288-16.14336-0.22528-21.84704-5.94432l-39.38816-39.45984c-24.81152-24.8832-68.0704-24.89856-92.91776 0.01536-25.60512 25.6512-25.60512 67.41504 0 93.09696l39.36256 39.42912c5.7344 5.71904 7.98208 14.03904 5.94432 21.87264-2.01216 7.83872-8.02816 14.01344-15.7952 16.2304-18.6368 5.30432-37.59104 8.0128-56.35584 8.0128-113.16224 0-205.21472-92.21632-205.21472-205.5424 0-10.78784 0.96256-21.81632 2.79552-32.9216l-26.99264-24.73984L314.27584 620.26752c12.09344 25.45664 7.71072 56.86784-13.30176 77.90592l-48 48.09216c-8.9088 8.91904-23.33696 8.91904-32.24064 0L156.25216 681.66656c-8.9088-8.92416-8.9088-23.36256 0-32.28672l48-48.08704c12.91776-12.94336 30.11072-20.0704 48.36352-20.0704 10.36288 0 20.352 2.37056 29.44 6.72768l128.85504-129.05984L189.6448 256.08192c-25.84576-25.89696-40.07936-60.29824-40.07936-96.90624 0-36.608 14.2336-71.00928 40.07936-96.86528 25.85088-25.9072 60.20608-40.1408 96.72704-40.1408 36.5312 0 70.89152 14.24896 97.408 40.86272l155.61216 170.30656 184.09984-184.41728c17.23904-17.26464 40.12544-26.75712 64.4864-26.75712 24.38144 0 47.26272 9.49248 64.46592 26.75712 17.24928 17.2288 26.74176 40.16128 26.74176 64.5632 0 24.41216-9.49248 47.36-26.7264 64.60928L688.39936 342.43072zM268.73344 633.58976c-8.63744-8.63232-23.59808-8.63232-32.24064 0l-31.88736 31.93344 32.24064 32.29696 31.88736-31.93344C277.62176 656.97792 277.62176 642.48832 268.73344 633.58976zM350.85312 94.60736c-34.44736-34.50368-94.47936-34.53952-128.96768 0.01536-17.23392 17.23392-26.71616 40.16128-26.71616 64.55296s9.48736 47.34464 25.98912 63.90784l290.61632 266.34752c0.22016 0.19968 0.36864 0.44032 0.57856 0.65024 0.5632 0.55808 1.0752 1.152 1.57696 1.7664 0.46592 0.56832 0.92672 1.13152 1.33632 1.73056 0.39936 0.60416 0.7424 1.2288 1.08544 1.8688 0.3584 0.6656 0.72192 1.32096 1.00352 2.01216 0.29184 0.67584 0.50176 1.37216 0.72192 2.0736 0.20992 0.6912 0.43008 1.37216 0.57344 2.0736 0.1536 0.7424 0.23552 1.49504 0.31744 2.25792 0.08192 0.71168 0.1536 1.41824 0.15872 2.13504 0.01024 0.72704-0.0512 1.45408-0.10752 2.18624-0.06656 0.7936-0.14848 1.57184-0.30208 2.3552-0.0512 0.28672-0.04096 0.56832-0.10752 0.85504-2.81088 12.2368-4.23424 24.35584-4.23424 36.01408 0 88.84224 73.2416 160.27648 161.7664 159.85152l-7.57248-7.58784c-43.35104-43.47392-43.35104-114.2016 0-157.65504 21.04832-21.08416 48.97792-32.70144 78.73024-32.70144 29.75744 0 57.69728 11.61728 78.71488 32.6912l7.54176 7.55712c0.03072-0.7168 0.03072-1.4336 0.03072-2.15552 0-88.15616-71.59808-159.85664-159.59552-159.85664-11.78112 0-23.85408 1.408-35.8912 4.21888-0.30208 0.07168-0.59904 0.05632-0.90112 0.11264-0.7936 0.14848-1.59232 0.23552-2.39616 0.30208-0.68096 0.05632-1.3568 0.10752-2.02752 0.10752-0.81408-0.01024-1.62304-0.09216-2.43712-0.18432-0.64-0.0768-1.27488-0.13824-1.89952-0.26624-0.83456-0.16896-1.64352-0.41984-2.4576-0.68096-0.57344-0.18944-1.152-0.3584-1.70496-0.5888-0.78336-0.32256-1.53088-0.72192-2.2784-1.13664-0.55808-0.31232-1.11616-0.60928-1.64864-0.96256-0.63488-0.42496-1.23392-0.90624-1.83296-1.39776-0.59904-0.49152-1.17248-0.98816-1.72544-1.54112-0.20992-0.20992-0.45568-0.36352-0.66048-0.5888L350.85312 94.60736zM820.21376 81.21856c-17.23392-17.25952-47.25248-17.25952-64.48128 0l-177.1008 177.40288 64.47616 64.57856 177.10592-177.39776c8.62208-8.63744 13.35808-20.10112 13.35808-32.31744C833.57696 101.29408 828.83584 89.84064 820.21376 81.21856zM286.37184 204.87168c-25.18016 0-45.60384-20.48512-45.60384-45.68576 0-25.2416 20.41856-45.68064 45.60384-45.68064 25.20576 0 45.59872 20.43904 45.59872 45.68064C331.97056 184.38656 311.57248 204.87168 286.37184 204.87168z"  horiz-adv-x="1024" />

    
    <glyph glyph-name="gonglvepressed" unicode="&#58910;" d="M763.515 646.819c-139.887 143.961-370.27 143.961-514.305 0s-143.961-378.564 0-522.526c98.713-98.713 242.75-131.669 366.124-90.494 53.467 16.44 106.934 49.394 148.109 90.494 144.035 143.961 144.035 378.49 0.074 522.526zM570.16 313.575l-242.75-115.229 115.229 246.822 242.75 115.228-115.228-246.822zM549.573 338.234l-82.273 82.273-90.494-172.768z"  horiz-adv-x="1025" />

    
    <glyph glyph-name="jingxuanpressed" unicode="&#58911;" d="M385.497 436.346h-170.127c-39.261 0-74.158 34.897-74.158 74.158v170.127c0 39.261 34.897 74.158 74.158 74.158h170.127c39.26 0 74.158-34.897 74.158-74.158v-170.127c0-39.26-34.897-74.158-74.158-74.158v0zM808.631 436.346h-170.127c-39.26 0-74.158 34.897-74.158 74.158v170.127c0 39.261 34.897 74.158 74.158 74.158h170.127c39.261 0 74.158-34.897 74.158-74.158v-170.127c0-39.26-34.897-74.158-74.158-74.158v0zM385.497 13.211h-170.127c-39.261 0-74.158 34.897-74.158 74.158v170.127c0 39.26 34.897 74.158 74.158 74.158h170.127c39.26 0 74.158-34.897 74.158-74.158v-170.127c0-39.261-34.897-74.158-74.158-74.158v0zM808.631 13.211h-170.127c-39.26 0-74.158 34.897-74.158 74.158v170.127c0 39.26 34.897 74.158 74.158 74.158h170.127c39.261 0 74.158-34.897 74.158-74.158v-170.127c0-39.261-34.897-74.158-74.158-74.158v0z"  horiz-adv-x="1024" />

    
    <glyph glyph-name="shouyepressed" unicode="&#58912;" d="M762.945 58.111h-382.919c-48.883 0-85.546 40.735-85.546 93.692v167.017h-12.22c-32.589 0-61.104 28.515-61.104 65.178 0 16.295 8.148 32.589 20.368 48.883l277.006 256.638c12.22 12.22 32.589 20.368 52.957 20.368s40.735-8.148 57.031-24.442l277.006-256.638c12.22-12.22 20.368-28.515 20.368-44.81 0-36.663-28.515-65.178-61.104-65.178h-8.148v-167.017c-4.072-52.957-44.81-93.692-93.692-93.692z"  horiz-adv-x="1152" />

    
    <glyph glyph-name="wodepressed" unicode="&#58913;" d="M767.557-36.321c51.805 0 93.803 42.123 93.803 53.459 0 167.042-106.782 308.093-252.386 352.751 75.692 37.258 127.943 115.555 127.943 206.355 0 126.822-101.818 229.629-227.318 229.629-125.583 0-227.318-102.807-227.318-229.712 0-91.129 52.658-169.673 128.838-206.766-144.71-45.236-250.678-185.875-250.678-352.258 0-29.525 41.746-53.459 93.803-53.459h513.317z"  horiz-adv-x="1024" />

    
    <glyph glyph-name="gongluenormal" unicode="&#58914;" d="M248.48 646.186c-143.019-144.808-143.019-379.565 0-524.371 99.542-100.765 242.118-131.405 367.829-91.917 54.925 17.252 106.631 47.891 150.125 91.917 143.036 144.79 143.036 379.565 0 524.371-143.036 144.79-374.918 144.79-517.952 0zM285.55 159.35c-122.548 124.067-122.548 325.241 0 449.307s321.259 124.066 443.805 0c122.548-124.066 122.563-325.241 0-449.307-122.547-124.067-321.259-124.067-443.805 0zM328.837 200.825l242.887 114.809 113.403 245.896-242.887-114.809-113.403-245.896zM548.184 339.462l-171.835-90.555 89.447 173.964 82.388-83.409z"  horiz-adv-x="1024" />

    
    <glyph glyph-name="jingxuannormal" unicode="&#58915;" d="M385.497 352.987h-170.127c-39.261 0-74.158-34.897-74.158-74.158v-170.127c0-39.261 34.897-74.158 74.158-74.158h170.127c39.26 0 74.158 34.897 74.158 74.158v170.127c0 39.26-34.897 74.158-74.158 74.158zM407.307 134.876c0-26.173-21.812-52.346-52.346-52.346h-113.418c-26.173 0-52.346 21.812-52.346 52.346v117.78c0 26.173 21.812 52.346 52.346 52.346h117.78c26.173 0 52.346-21.812 52.346-52.346v-117.78zM808.631 352.987h-170.127c-39.26 0-74.158-34.897-74.158-74.158v-170.127c0-39.261 34.897-74.158 74.158-74.158h170.127c39.261 0 74.158 34.897 74.158 74.158v170.127c0 39.26-34.897 74.158-74.158 74.158zM834.804 134.876c0-30.536-21.812-52.346-52.346-52.346h-117.78c-30.536 0-52.346 21.812-52.346 52.346v117.78c0 30.536 21.812 52.346 52.346 52.346h117.78c30.536 0 52.346-21.812 52.346-52.346v-117.78zM385.497 745.585h-170.127c-39.261 0-74.158-34.897-74.158-74.158v-170.127c0-39.261 34.897-74.158 74.158-74.158h170.127c39.26 0 74.158 34.897 74.158 74.158v170.127c0 39.261-34.897 74.158-74.158 74.158zM407.307 527.475c0-26.173-21.812-52.346-52.346-52.346h-113.418c-26.173 0-52.346 21.812-52.346 52.346v117.78c0 26.173 21.812 52.346 52.346 52.346h117.78c26.173 0 52.346-21.812 52.346-52.346v-117.78zM808.631 745.585h-170.127c-39.26 0-74.158-34.897-74.158-74.158v-170.127c0-39.261 34.897-74.158 74.158-74.158h170.127c39.261 0 74.158 34.897 74.158 74.158v170.127c0 39.261-34.897 74.158-74.158 74.158zM834.804 527.475c0-30.536-21.812-52.346-52.346-52.346h-117.78c-30.536 0-52.346 21.812-52.346 52.346v117.78c0 30.536 21.812 52.346 52.346 52.346h117.78c30.536 0 52.346-21.812 52.346-52.346v-117.78z"  horiz-adv-x="1024" />

    
    <glyph glyph-name="shouyenormal" unicode="&#58881;" d="M797.52 13.211h-435.677c-55.618 0-97.332 46.348-97.332 106.601v190.029h-13.904c-37.079 0-69.523 32.444-69.523 74.158 0 18.54 9.27 37.079 23.174 55.618l315.171 291.997c13.904 13.904 37.079 23.174 60.253 23.174s46.348-9.27 64.888-27.809l315.171-291.997c13.904-13.904 23.174-32.444 23.174-50.984 0-41.714-32.444-74.158-69.523-74.158h-9.27v-190.029c-4.634-60.253-50.983-106.601-106.601-106.601v0zM547.237 671.361l-287.361-268.822c-4.634-4.634-9.27-9.27-9.27-18.54 0-13.904 13.904-27.809 27.809-27.809v0c23.174 0 46.348-18.54 46.348-46.348v-176.125c0-32.444 23.174-60.253 55.618-60.253h403.233c32.444 0 55.618 27.809 55.618 60.253v176.125c0 27.809 18.54 46.348 46.348 46.348v0c13.904 0 27.809 13.904 27.809 27.809 0 9.27-4.634 13.904-9.27 18.54l-291.997 268.822c-9.27 9.27-18.54 13.904-32.444 13.904s-23.174-4.634-32.444-13.904z"  horiz-adv-x="1152" />

    
    <glyph glyph-name="wodenormal" unicode="&#58917;" d="M769.813-37.875c51.563 0 93.75 42.188 93.75 51.563v0c0 168.75-107.812 309.375-253.125 351.563 75 37.5 126.563 117.188 126.563 206.25 0 126.563-103.126 229.688-225 229.688-126.563 4.688-229.688-98.438-229.688-225 0-89.062 51.563-168.75 126.562-206.25-145.313-46.875-248.437-187.501-248.437-351.563v0c0-32.813 42.188-56.25 93.75-56.25h515.625zM512 327.75c164.063 0 295.313-140.625 295.313-309.375h-590.625c0 168.75 131.25 309.375 295.313 309.375zM338.562 576.187c0 93.75 75 173.438 168.75 173.438s168.75-75 168.75-173.438-70.313-173.438-168.75-173.438c-93.75 0-168.75 79.688-168.75 173.438v0z"  horiz-adv-x="1024" />

    
    <glyph glyph-name="fankui" unicode="&#58918;" d="M992.956271-127.992906l-960.927178 0c-17.714653 0-32.030906 14.316252-32.030906 32.030906l0 0c0 17.714653 14.316252 32.030906 32.030906 32.030906l960.927178 0c17.714653 0 32.030906-14.316252 32.030906-32.030906l0 0C1024.987177-113.676654 1010.670924-127.992906 992.956271-127.992906zM1004.674895 778.188766 907.175942 875.687718C893.562807 889.183667 875.848154 896 858.016314 896c-17.812309 0-35.526962-6.816333-49.042442-20.312282L328.217318 394.911633 195.582024 112.84435c-11.406127-24.433331 7.617106-49.647904 31.230133-49.647904 4.902291 0 9.902237 1.093738 15.01937 3.398401L523.89881 199.132486l480.756554 480.756554C1031.783979 707.11531 1031.783979 751.060151 1004.674895 778.188766zM486.457806 252.374101l-198.298651-93.182593L381.361278 357.470629l348.238447 348.238447 105.096527-105.096527L486.457806 252.374101zM959.32382 725.240116l-79.374147-79.374147-105.096527 105.096527 79.374147 79.374147c0.390621 0.410152 1.601545 1.601545 3.808553 1.601545 2.207008 0 3.398401-1.191393 3.808553-1.601545l97.498953-97.498953c0.390621-0.390621 1.601545-1.601545 1.601545-3.808553S959.714441 725.630736 959.32382 725.240116z"  horiz-adv-x="1026" />

    
    <glyph glyph-name="huatong" unicode="&#58899;" d="M512.001 6.742446c-167.679162 0-306.686467 122.539387-332.501337 282.944585l54.822726 0c25.182874-130.464348 139.857301-229.054855 277.679612-229.054855 137.819311 0 252.499738 98.589507 277.679612 229.054855l54.819726 0C818.690467 129.281834 679.681162 6.742446 512.001 6.742446zM538.950865-74.103149l47.154764 0c14.884926 0 26.944865-12.05994 26.944865-26.944865 0-14.889926-12.05994-26.949865-26.944865-26.949865l-148.209259 0c-14.887926 0-26.947865 12.05994-26.947865 26.949865 0 14.884926 12.05994 26.944865 26.947865 26.944865l47.157764 0 0 80.844596 26.947865 0 26.949865 0L538.951865-74.103149zM512.001 114.526907c-126.504367 0-229.051855 102.549487-229.051855 229.054855L282.949145 666.948145C282.949145 793.452513 385.496633 896 512.001 896s229.049855-102.547487 229.049855-229.051855l0-323.366383C741.050855 217.076395 638.506367 114.526907 512.001 114.526907zM687.161124 680.420078c0 89.289554-72.394638 161.684192-161.689192 161.684192l-26.942865 0c-89.292554 0-161.684192-72.394638-161.684192-161.684192l0-350.314248c0-89.289554 72.392638-161.684192 161.684192-161.684192l26.942865 0c89.294554 0 161.689192 72.394638 161.689192 161.684192L687.161124 680.420078z"  horiz-adv-x="1024" />

    
    </font>
</defs>
</svg>
